<svg version="1.1" viewBox="0.0 0.0 488.0 526.0" fill="none" stroke="none" stroke-linecap="square" stroke-miterlimit="10" width="488" height="526" xmlns:xlink="http://www.w3.org/1999/xlink" xmlns="http://www.w3.org/2000/svg"><path fill="#fdfdfd" d="M0 0L488.0 0L488.0 526.0L0 526.0L0 0Z" fill-rule="nonzero"/><path stroke="#cacaca" stroke-width="1.0" stroke-linecap="butt" d="M102.5 71.5L102.5 433.5" fill-rule="nonzero"/><path stroke="#cacaca" stroke-width="1.0" stroke-linecap="butt" d="M192.5 71.5L192.5 433.5" fill-rule="nonzero"/><path stroke="#cacaca" stroke-width="1.0" stroke-linecap="butt" d="M283.5 71.5L283.5 433.5" fill-rule="nonzero"/><path stroke="#cacaca" stroke-width="1.0" stroke-linecap="butt" d="M373.5 71.5L373.5 433.5" fill-rule="nonzero"/><path stroke="#cacaca" stroke-width="1.0" stroke-linecap="butt" d="M463.5 71.5L463.5 433.5" fill-rule="nonzero"/><path stroke="#cacaca" stroke-width="1.0" stroke-linecap="butt" d="M102.5 433.5L463.5 433.5" fill-rule="nonzero"/><path stroke="#cacaca" stroke-width="1.0" stroke-linecap="butt" d="M102.5 343.5L463.5 343.5" fill-rule="nonzero"/><path stroke="#cacaca" stroke-width="1.0" stroke-linecap="butt" d="M102.5 252.5L463.5 252.5" fill-rule="nonzero"/><path stroke="#cacaca" stroke-width="1.0" stroke-linecap="butt" d="M102.5 162.5L463.5 162.5" fill-rule="nonzero"/><path stroke="#cacaca" stroke-width="1.0" stroke-linecap="butt" d="M102.5 71.5L463.5 71.5" fill-rule="nonzero"/><clipPath id="id_0"><path d="M102.4 71.666664L463.6 71.666664L463.6 433.6L102.4 433.6L102.4 71.666664Z" clip-rule="nonzero"/></clipPath><path stroke="#000000" stroke-width="2.0" stroke-linecap="butt" stroke-opacity="0.4" clip-path="url(#id_0)" d="M0 536.2079C0 536.2079 2.6666667 533.5358 4.0 532.19977C5.3333335 530.8637 6.6666665 529.5277 8.0 528.19165C9.333333 526.8556 10.666667 525.5196 12.0 524.18353C13.333333 522.8475 14.666667 521.5115 16.0 520.1754C17.333334 518.83936 18.666666 517.50336 20.0 516.1673C21.333334 514.83124 22.666666 513.49524 24.0 512.1592C25.333334 510.82312 26.666666 509.4871 28.0 508.15106C29.333334 506.815 30.666666 505.47897 32.0 504.14294C33.333332 502.8069 34.666668 501.47086 36.0 500.1348C37.333332 498.79877 38.666668 497.46274 40.0 496.12668C41.333332 494.79065 42.666668 493.45462 44.0 492.11856C45.333332 490.78253 46.666668 489.44647 48.0 488.11044C49.333332 486.7744 50.666668 485.43835 52.0 484.10233C53.333332 482.7663 54.666668 481.43024 56.0 480.0942C57.333332 478.75818 58.666668 477.42212 60.0 476.0861C61.333332 474.75003 62.666668 473.414 64.0 472.07797C65.333336 470.7419 66.666664 469.40588 68.0 468.06985C69.333336 466.7338 70.666664 465.39777 72.0 464.0617C73.333336 462.72568 74.666664 461.38965 76.0 460.0536C77.333336 458.71756 78.666664 457.38153 80.0 456.04547C81.333336 454.70944 82.666664 453.37338 84.0 452.03735C85.333336 450.70132 86.666664 449.36526 88.0 448.02924C89.333336 446.6932 90.666664 445.35715 92.0 444.02112C93.333336 442.6851 94.666664 441.34903 96.0 440.013C97.333336 438.67694 98.666664 437.3409 100.0 436.00488C101.333336 434.66882 102.666664 433.3328 104.0 431.99677C105.333336 430.6607 106.666664 429.32468 108.0 427.98862C109.333336 426.6526 110.666664 425.31656 112.0 423.9805C113.333336 422.64447 114.666664 421.30844 116.0 419.97238C117.333336 418.63635 118.666664 417.3003 120.0 415.96426C121.333336 414.62823 122.666664 413.29218 124.0 411.95615C125.333336 410.62012 126.666664 409.28406 128.0 407.94803C129.33333 406.612 130.66667 405.27594 132.0 403.9399C133.33333 402.60385 134.66667 401.26782 136.0 399.9318C137.33333 398.59573 138.66667 397.2597 140.0 395.92368C141.33333 394.58762 142.66667 393.2516 144.0 391.91553C145.33333 390.5795 146.66667 389.24347 148.0 387.9074C149.33333 386.57138 150.66667 385.23535 152.0 383.8993C153.33333 382.56326 154.66667 381.2272 156.0 379.89117C157.33333 378.55515 158.66667 377.2191 160.0 375.88306C161.33333 374.54703 162.66667 373.21097 164.0 371.87494C165.33333 370.5389 166.66667 369.20285 168.0 367.86682C169.33333 366.53076 170.66667 365.19473 172.0 363.8587C173.33333 362.52264 174.66667 361.1866 176.0 359.8506C177.33333 358.51453 178.66667 357.1785 180.0 355.84244C181.33333 354.5064 182.66667 353.17038 184.0 351.83432C185.33333 350.4983 186.66667 349.16226 188.0 347.8262C189.33333 346.49017 190.66667 345.1541 192.0 343.81808C193.33333 342.48206 194.66667 341.146 196.0 339.80997C197.33333 338.47394 198.66667 337.13788 200.0 335.80185C201.33333 334.46582 202.66667 333.12976 204.0 331.79373C205.33333 330.45767 206.66667 329.12164 208.0 327.7856C209.33333 326.44955 210.66667 325.11353 212.0 323.7775C213.33333 322.44144 214.66667 321.1054 216.0 319.76935C217.33333 318.43332 218.66667 317.0973 220.0 315.76123C221.33333 314.4252 222.66667 313.08917 224.0 311.7531C225.33333 310.41708 226.66667 309.08102 228.0 307.745C229.33333 306.40897 230.66667 305.0729 232.0 303.73688C233.33333 302.40085 234.66667 301.0648 236.0 299.72876C237.33333 298.39273 238.66667 297.05667 240.0 295.72064C241.33333 294.38458 242.66667 293.04855 244.0 291.71252C245.33333 290.37646 246.66667 289.04044 248.0 287.7044C249.33333 286.36835 250.66667 285.03232 252.0 283.69626C253.33333 282.36023 254.66667 281.0242 256.0 279.68814C257.33334 278.3521 258.66666 277.01608 260.0 275.68002C261.33334 274.344 262.66666 273.00793 264.0 271.6719C265.33334 270.33588 266.66666 268.99982 268.0 267.6638C269.33334 266.32776 270.66666 264.9917 272.0 263.65567C273.33334 262.31964 274.66666 260.98358 276.0 259.64755C277.33334 258.3115 278.66666 256.97546 280.0 255.63942C281.33334 254.30339 282.66666 252.96735 284.0 251.6313C285.33334 250.29526 286.66666 248.95923 288.0 247.62318C289.33334 246.28714 290.66666 244.9511 292.0 243.61507C293.33334 242.27902 294.66666 240.94298 296.0 239.60693C297.33334 238.2709 298.66666 236.93486 300.0 235.59882C301.33334 234.26277 302.66666 232.92674 304.0 231.5907C305.33334 230.25465 306.66666 228.91861 308.0 227.58258C309.33334 226.24654 310.66666 224.91049 312.0 223.57446C313.33334 222.23842 314.66666 220.90237 316.0 219.56633C317.33334 218.2303 318.66666 216.89426 320.0 215.55821C321.33334 214.22217 322.66666 212.88614 324.0 211.5501C325.33334 210.21405 326.66666 208.878 328.0 207.54198C329.33334 206.20593 330.66666 204.86989 332.0 203.53384C333.33334 202.19781 334.66666 200.86177 336.0 199.52573C337.33334 198.18968 338.66666 196.85365 340.0 195.51761C341.33334 194.18156 342.66666 192.84552 344.0 191.50949C345.33334 190.17345 346.66666 188.8374 348.0 187.50137C349.33334 186.16533 350.66666 184.82928 352.0 183.49324C353.33334 182.15721 354.66666 180.82117 356.0 179.48512C357.33334 178.14908 358.66666 176.81305 360.0 175.477C361.33334 174.14096 362.66666 172.80492 364.0 171.46889C365.33334 170.13284 366.66666 168.7968 368.0 167.46075C369.33334 166.12473 370.66666 164.78868 372.0 163.45264C373.33334 162.1166 374.66666 160.78056 376.0 159.44452C377.33334 158.10847 378.66666 156.77243 380.0 155.4364C381.33334 154.10036 382.66666 152.76431 384.0 151.42828C385.33334 150.09224 386.66666 148.7562 388.0 147.42015C389.33334 146.08412 390.66666 144.74808 392.0 143.41203C393.33334 142.07599 394.66666 140.73996 396.0 139.40392C397.33334 138.06787 398.66666 136.73183 400.0 135.3958C401.33334 134.05975 402.66666 132.72371 404.0 131.38766C405.33334 130.05164 406.66666 128.71559 408.0 127.37955C409.33334 126.04351 410.66666 124.707466 412.0 123.37143C413.33334 122.035385 414.66666 120.69935 416.0 119.363304C417.33334 118.02727 418.66666 116.69122 420.0 115.35519C421.33334 114.01915 422.66666 112.683105 424.0 111.34707C425.33334 110.011024 426.66666 108.67499 428.0 107.33894C429.33334 106.00291 430.66666 104.66686 432.0 103.330826C433.33334 101.99478 434.66666 100.658745 436.0 99.3227C437.33334 97.986664 438.66666 96.65062 440.0 95.31458C441.33334 93.97854 442.66666 92.6425 444.0 91.30646C445.33334 89.97042 446.66666 88.63438 448.0 87.29834C449.33334 85.962296 450.66666 84.62626 452.0 83.290215C453.33334 81.95418 454.66666 80.61813 456.0 79.2821C457.33334 77.94605 460.0 75.27398 460.0 75.27398" fill-rule="nonzero"/><path fill="#4285f4" clip-path="url(#id_0)" d="M175.66705 363.19028C175.66705 364.84714 174.32391 366.19028 172.66705 366.19028C171.01021 366.19028 169.66705 364.84714 169.66705 363.19028C169.66705 361.53342 171.01021 360.19028 172.66705 360.19028C174.32391 360.19028 175.66705 361.53342 175.66705 363.19028Z" fill-rule="nonzero"/><path fill="#4285f4" clip-path="url(#id_0)" d="M176.31528 362.54074C176.31528 364.1976 174.97214 365.54074 173.31528 365.54074C171.65843 365.54074 170.31528 364.1976 170.31528 362.54074C170.31528 360.88388 171.65843 359.54074 173.31528 359.54074C174.97214 359.54074 176.31528 360.88388 176.31528 362.54074Z" fill-rule="nonzero"/><path fill="#4285f4" clip-path="url(#id_0)" d="M177.58044 361.90176C177.58044 363.55862 176.2373 364.90176 174.58044 364.90176C172.9236 364.90176 171.58044 363.55862 171.58044 361.90176C171.58044 360.2449 172.9236 358.90176 174.58044 358.90176C176.2373 358.90176 177.58044 360.2449 177.58044 361.90176Z" fill-rule="nonzero"/><path fill="#4285f4" clip-path="url(#id_0)" d="M178.19806 363.19028C178.19806 364.84714 176.8549 366.19028 175.19806 366.19028C173.5412 366.19028 172.19806 364.84714 172.19806 363.19028C172.19806 361.53342 173.5412 360.19028 175.19806 360.19028C176.8549 360.19028 178.19806 361.53342 178.19806 363.19028Z" fill-rule="nonzero"/><path fill="#4285f4" clip-path="url(#id_0)" d="M178.19806 363.19028C178.19806 364.84714 176.8549 366.19028 175.19806 366.19028C173.5412 366.19028 172.19806 364.84714 172.19806 363.19028C172.19806 361.53342 173.5412 360.19028 175.19806 360.19028C176.8549 360.19028 178.19806 361.53342 178.19806 363.19028Z" fill-rule="nonzero"/><path fill="#4285f4" clip-path="url(#id_0)" d="M180.57556 363.85074C180.57556 365.5076 179.2324 366.85074 177.57556 366.85074C175.9187 366.85074 174.57556 365.5076 174.57556 363.85074C174.57556 362.19388 175.9187 360.85074 177.57556 360.85074C179.2324 360.85074 180.57556 362.19388 180.57556 363.85074Z" fill-rule="nonzero"/><path fill="#4285f4" clip-path="url(#id_0)" d="M180.57556 363.85074C180.57556 365.5076 179.2324 366.85074 177.57556 366.85074C175.9187 366.85074 174.57556 365.5076 174.57556 363.85074C174.57556 362.19388 175.9187 360.85074 177.57556 360.85074C179.2324 360.85074 180.57556 362.19388 180.57556 363.85074Z" fill-rule="nonzero"/><path fill="#4285f4" clip-path="url(#id_0)" d="M181.14807 363.85074C181.14807 365.5076 179.80493 366.85074 178.14807 366.85074C176.49123 366.85074 175.14807 365.5076 175.14807 363.85074C175.14807 362.19388 176.49123 360.85074 178.14807 360.85074C179.80493 360.85074 181.14807 362.19388 181.14807 363.85074Z" fill-rule="nonzero"/><path fill="#4285f4" clip-path="url(#id_0)" d="M208.33109 317.0754C208.33109 318.73227 206.98793 320.0754 205.33109 320.0754C203.67422 320.0754 202.33109 318.73227 202.33109 317.0754C202.33109 315.41855 203.67422 314.0754 205.33109 314.0754C206.98793 314.0754 208.33109 315.41855 208.33109 317.0754Z" fill-rule="nonzero"/><path fill="#4285f4" clip-path="url(#id_0)" d="M214.86053 313.21973C214.86053 314.8766 213.5174 316.21973 211.86053 316.21973C210.20369 316.21973 208.86053 314.8766 208.86053 313.21973C208.86053 311.56287 210.20369 310.21973 211.86053 310.21973C213.5174 310.21973 214.86053 311.56287 214.86053 313.21973Z" fill-rule="nonzero"/><path fill="#4285f4" clip-path="url(#id_0)" d="M257.1343 279.09335C257.1343 280.7502 255.79115 282.09335 254.1343 282.09335C252.47745 282.09335 251.1343 280.7502 251.1343 279.09335C251.1343 277.4365 252.47745 276.09335 254.1343 276.09335C255.79115 276.09335 257.1343 277.4365 257.1343 279.09335Z" fill-rule="nonzero"/><path fill="#4285f4" clip-path="url(#id_0)" d="M264.298 273.23444C264.298 274.89127 262.95486 276.23444 261.298 276.23444C259.64114 276.23444 258.298 274.89127 258.298 273.23444C258.298 271.57758 259.64114 270.23444 261.298 270.23444C262.95486 270.23444 264.298 271.57758 264.298 273.23444Z" fill-rule="nonzero"/><path fill="#4285f4" clip-path="url(#id_0)" d="M268.62042 270.97723C268.62042 272.6341 267.27725 273.97723 265.62042 273.97723C263.96356 273.97723 262.62042 272.6341 262.62042 270.97723C262.62042 269.32037 263.96356 267.97723 265.62042 267.97723C267.27725 267.97723 268.62042 269.32037 268.62042 270.97723Z" fill-rule="nonzero"/><path fill="#4285f4" clip-path="url(#id_0)" d="M271.10556 274.03915C271.10556 275.696 269.76242 277.03915 268.10556 277.03915C266.4487 277.03915 265.10556 275.696 265.10556 274.03915C265.10556 272.3823 266.4487 271.03915 268.10556 271.03915C269.76242 271.03915 271.10556 272.3823 271.10556 274.03915Z" fill-rule="nonzero"/><path fill="#4285f4" clip-path="url(#id_0)" d="M275.03052 269.3806C275.03052 271.03745 273.68738 272.3806 272.03052 272.3806C270.37366 272.3806 269.03052 271.03745 269.03052 269.3806C269.03052 267.72375 270.37366 266.3806 272.03052 266.3806C273.68738 266.3806 275.03052 267.72375 275.03052 269.3806Z" fill-rule="nonzero"/><path fill="#4285f4" clip-path="url(#id_0)" d="M281.9986 268.606C281.9986 270.26282 280.65546 271.606 278.9986 271.606C277.34174 271.606 275.9986 270.26282 275.9986 268.606C275.9986 266.94913 277.34174 265.606 278.9986 265.606C280.65546 265.606 281.9986 266.94913 281.9986 268.606Z" fill-rule="nonzero"/><path fill="#4285f4" clip-path="url(#id_0)" d="M287.87604 255.35854C287.87604 257.0154 286.53287 258.35855 284.87604 258.35855C283.21918 258.35855 281.87604 257.0154 281.87604 255.35854C281.87604 253.70169 283.21918 252.35854 284.87604 252.35854C286.53287 252.35854 287.87604 253.70169 287.87604 255.35854Z" fill-rule="nonzero"/><path fill="#4285f4" clip-path="url(#id_0)" d="M298.2312 241.3973C298.2312 243.05414 296.88806 244.3973 295.2312 244.3973C293.57434 244.3973 292.2312 243.05414 292.2312 241.3973C292.2312 239.74043 293.57434 238.3973 295.2312 238.3973C296.88806 238.3973 298.2312 239.74043 298.2312 241.3973Z" fill-rule="nonzero"/><path fill="#4285f4" clip-path="url(#id_0)" d="M298.77292 242.65729C298.77292 244.31413 297.42978 245.65729 295.77292 245.65729C294.11606 245.65729 292.77292 244.31413 292.77292 242.65729C292.77292 241.00043 294.11606 239.65729 295.77292 239.65729C297.42978 239.65729 298.77292 241.00043 298.77292 242.65729Z" fill-rule="nonzero"/><path fill="#4285f4" clip-path="url(#id_0)" d="M298.99878 241.51556C298.99878 243.17242 297.65564 244.51556 295.99878 244.51556C294.34192 244.51556 292.99878 243.17242 292.99878 241.51556C292.99878 239.8587 294.34192 238.51556 295.99878 238.51556C297.65564 238.51556 298.99878 239.8587 298.99878 241.51556Z" fill-rule="nonzero"/><path fill="#4285f4" clip-path="url(#id_0)" d="M302.1876 232.22322C302.1876 233.88007 300.84442 235.22322 299.1876 235.22322C297.53073 235.22322 296.1876 233.88007 296.1876 232.22322C296.1876 230.56636 297.53073 229.22322 299.1876 229.22322C300.84442 229.22322 302.1876 230.56636 302.1876 232.22322Z" fill-rule="nonzero"/><path fill="#4285f4" clip-path="url(#id_0)" d="M302.4978 238.79846C302.4978 240.45532 301.15466 241.79846 299.4978 241.79846C297.84094 241.79846 296.4978 240.45532 296.4978 238.79846C296.4978 237.14162 297.84094 235.79846 299.4978 235.79846C301.15466 235.79846 302.4978 237.14162 302.4978 238.79846Z" fill-rule="nonzero"/><path fill="#4285f4" clip-path="url(#id_0)" d="M302.52353 232.03664C302.52353 233.6935 301.1804 235.03664 299.52353 235.03664C297.8667 235.03664 296.52353 233.6935 296.52353 232.03664C296.52353 230.37979 297.8667 229.03664 299.52353 229.03664C301.1804 229.03664 302.52353 230.37979 302.52353 232.03664Z" fill-rule="nonzero"/><path fill="#4285f4" clip-path="url(#id_0)" d="M302.9586 239.43925C302.9586 241.09612 301.61542 242.43925 299.9586 242.43925C298.30173 242.43925 296.9586 241.09612 296.9586 239.43925C296.9586 237.78241 298.30173 236.43925 299.9586 236.43925C301.61542 236.43925 302.9586 237.78241 302.9586 239.43925Z" fill-rule="nonzero"/><path fill="#4285f4" clip-path="url(#id_0)" d="M306.97067 240.0051C306.97067 241.66194 305.62753 243.0051 303.97067 243.0051C302.31384 243.0051 300.97067 241.66194 300.97067 240.0051C300.97067 238.34824 302.31384 237.0051 303.97067 237.0051C305.62753 237.0051 306.97067 238.34824 306.97067 240.0051Z" fill-rule="nonzero"/><path fill="#4285f4" clip-path="url(#id_0)" d="M307.26822 229.9745C307.26822 231.63135 305.92508 232.9745 304.26822 232.9745C302.61136 232.9745 301.26822 231.63135 301.26822 229.9745C301.26822 228.31764 302.61136 226.9745 304.26822 226.9745C305.92508 226.9745 307.26822 228.31764 307.26822 229.9745Z" fill-rule="nonzero"/><path fill="#4285f4" clip-path="url(#id_0)" d="M307.54086 247.48439C307.54086 249.14125 306.19772 250.48439 304.54086 250.48439C302.88403 250.48439 301.54086 249.14125 301.54086 247.48439C301.54086 245.82755 302.88403 244.48439 304.54086 244.48439C306.19772 244.48439 307.54086 245.82755 307.54086 247.48439Z" fill-rule="nonzero"/><path fill="#4285f4" clip-path="url(#id_0)" d="M311.39783 242.50514C311.39783 244.162 310.0547 245.50514 308.39783 245.50514C306.741 245.50514 305.39783 244.162 305.39783 242.50514C305.39783 240.8483 306.741 239.50514 308.39783 239.50514C310.0547 239.50514 311.39783 240.8483 311.39783 242.50514Z" fill-rule="nonzero"/><path fill="#4285f4" clip-path="url(#id_0)" d="M312.66986 224.73271C312.66986 226.38957 311.3267 227.73271 309.66986 227.73271C308.013 227.73271 306.66986 226.38957 306.66986 224.73271C306.66986 223.07585 308.013 221.73271 309.66986 221.73271C311.3267 221.73271 312.66986 223.07585 312.66986 224.73271Z" fill-rule="nonzero"/><path fill="#4285f4" clip-path="url(#id_0)" d="M312.70956 224.57846C312.70956 226.2353 311.36642 227.57846 309.70956 227.57846C308.0527 227.57846 306.70956 226.2353 306.70956 224.57846C306.70956 222.9216 308.0527 221.57846 309.70956 221.57846C311.36642 221.57846 312.70956 222.9216 312.70956 224.57846Z" fill-rule="nonzero"/><path fill="#4285f4" clip-path="url(#id_0)" d="M313.14377 237.28062C313.14377 238.93748 311.80063 240.28062 310.14377 240.28062C308.4869 240.28062 307.14377 238.93748 307.14377 237.28062C307.14377 235.62376 308.4869 234.28062 310.14377 234.28062C311.80063 234.28062 313.14377 235.62376 313.14377 237.28062Z" fill-rule="nonzero"/><path fill="#4285f4" clip-path="url(#id_0)" d="M314.1896 239.74947C314.1896 241.40631 312.84647 242.74947 311.1896 242.74947C309.53278 242.74947 308.1896 241.40631 308.1896 239.74947C308.1896 238.0926 309.53278 236.74947 311.1896 236.74947C312.84647 236.74947 314.1896 238.0926 314.1896 239.74947Z" fill-rule="nonzero"/><path fill="#4285f4" clip-path="url(#id_0)" d="M314.28506 226.06892C314.28506 227.72577 312.94193 229.06892 311.28506 229.06892C309.6282 229.06892 308.28506 227.72577 308.28506 226.06892C308.28506 224.41206 309.6282 223.06892 311.28506 223.06892C312.94193 223.06892 314.28506 224.41206 314.28506 226.06892Z" fill-rule="nonzero"/><path fill="#4285f4" clip-path="url(#id_0)" d="M315.15237 221.93663C315.15237 223.59348 313.80923 224.93663 312.15237 224.93663C310.49554 224.93663 309.15237 223.59348 309.15237 221.93663C309.15237 220.27977 310.49554 218.93663 312.15237 218.93663C313.80923 218.93663 315.15237 220.27977 315.15237 221.93663Z" fill-rule="nonzero"/><path fill="#4285f4" clip-path="url(#id_0)" d="M316.83154 240.69502C316.83154 242.35188 315.4884 243.69502 313.83154 243.69502C312.17468 243.69502 310.83154 242.35188 310.83154 240.69502C310.83154 239.03818 312.17468 237.69502 313.83154 237.69502C315.4884 237.69502 316.83154 239.03818 316.83154 240.69502Z" fill-rule="nonzero"/><path fill="#4285f4" clip-path="url(#id_0)" d="M318.56158 226.30951C318.56158 227.96637 317.21844 229.30951 315.56158 229.30951C313.90472 229.30951 312.56158 227.96637 312.56158 226.30951C312.56158 224.65265 313.90472 223.30951 315.56158 223.30951C317.21844 223.30951 318.56158 224.65265 318.56158 226.30951Z" fill-rule="nonzero"/><path fill="#4285f4" clip-path="url(#id_0)" d="M320.0049 218.01826C320.0049 219.67513 318.66174 221.01826 317.0049 221.01826C315.34805 221.01826 314.0049 219.67513 314.0049 218.01826C314.0049 216.36142 315.34805 215.01826 317.0049 215.01826C318.66174 215.01826 320.0049 216.36142 320.0049 218.01826Z" fill-rule="nonzero"/><path fill="#4285f4" clip-path="url(#id_0)" d="M320.26767 218.37819C320.26767 220.03505 318.9245 221.37819 317.26767 221.37819C315.6108 221.37819 314.26767 220.03505 314.26767 218.37819C314.26767 216.72134 315.6108 215.37819 317.26767 215.37819C318.9245 215.37819 320.26767 216.72134 320.26767 218.37819Z" fill-rule="nonzero"/><path fill="#4285f4" clip-path="url(#id_0)" d="M320.39838 222.18933C320.39838 223.84619 319.05524 225.18933 317.39838 225.18933C315.74152 225.18933 314.39838 223.84619 314.39838 222.18933C314.39838 220.53249 315.74152 219.18933 317.39838 219.18933C319.05524 219.18933 320.39838 220.53249 320.39838 222.18933Z" fill-rule="nonzero"/><path fill="#4285f4" clip-path="url(#id_0)" d="M321.4764 223.42175C321.4764 225.07861 320.13327 226.42175 318.4764 226.42175C316.81955 226.42175 315.4764 225.07861 315.4764 223.42175C315.4764 221.76491 316.81955 220.42175 318.4764 220.42175C320.13327 220.42175 321.4764 221.76491 321.4764 223.42175Z" fill-rule="nonzero"/><path fill="#4285f4" clip-path="url(#id_0)" d="M321.53986 220.66203C321.53986 222.3189 320.1967 223.66203 318.53986 223.66203C316.883 223.66203 315.53986 222.3189 315.53986 220.66203C315.53986 219.00517 316.883 217.66203 318.53986 217.66203C320.1967 217.66203 321.53986 219.00517 321.53986 220.66203Z" fill-rule="nonzero"/><path fill="#4285f4" clip-path="url(#id_0)" d="M321.8712 222.79152C321.8712 224.44838 320.52805 225.79152 318.8712 225.79152C317.21432 225.79152 315.8712 224.44838 315.8712 222.79152C315.8712 221.13467 317.21432 219.79152 318.8712 219.79152C320.52805 219.79152 321.8712 221.13467 321.8712 222.79152Z" fill-rule="nonzero"/><path fill="#4285f4" clip-path="url(#id_0)" d="M322.05927 238.85378C322.05927 240.51064 320.71613 241.85378 319.05927 241.85378C317.40244 241.85378 316.05927 240.51064 316.05927 238.85378C316.05927 237.19691 317.40244 235.85378 319.05927 235.85378C320.71613 235.85378 322.05927 237.19691 322.05927 238.85378Z" fill-rule="nonzero"/><path fill="#4285f4" clip-path="url(#id_0)" d="M323.5173 221.32957C323.5173 222.98643 322.17416 224.32957 320.5173 224.32957C318.86047 224.32957 317.5173 222.98643 317.5173 221.32957C317.5173 219.67273 318.86047 218.32957 320.5173 218.32957C322.17416 218.32957 323.5173 219.67273 323.5173 221.32957Z" fill-rule="nonzero"/><path fill="#4285f4" clip-path="url(#id_0)" d="M323.84738 237.54741C323.84738 239.20425 322.50424 240.54741 320.84738 240.54741C319.19052 240.54741 317.84738 239.20425 317.84738 237.54741C317.84738 235.89055 319.19052 234.54741 320.84738 234.54741C322.50424 234.54741 323.84738 235.89055 323.84738 237.54741Z" fill-rule="nonzero"/><path fill="#4285f4" clip-path="url(#id_0)" d="M324.2635 214.44058C324.2635 216.09743 322.92032 217.44058 321.2635 217.44058C319.60663 217.44058 318.2635 216.09743 318.2635 214.44058C318.2635 212.78372 319.60663 211.44058 321.2635 211.44058C322.92032 211.44058 324.2635 212.78372 324.2635 214.44058Z" fill-rule="nonzero"/><path fill="#4285f4" clip-path="url(#id_0)" d="M324.87946 226.14896C324.87946 227.8058 323.53632 229.14896 321.87946 229.14896C320.2226 229.14896 318.87946 227.8058 318.87946 226.14896C318.87946 224.4921 320.2226 223.14896 321.87946 223.14896C323.53632 223.14896 324.87946 224.4921 324.87946 226.14896Z" fill-rule="nonzero"/><path fill="#4285f4" clip-path="url(#id_0)" d="M325.05368 213.12473C325.05368 214.78159 323.71054 216.12473 322.05368 216.12473C320.39682 216.12473 319.05368 214.78159 319.05368 213.12473C319.05368 211.46786 320.39682 210.12473 322.05368 210.12473C323.71054 210.12473 325.05368 211.46786 325.05368 213.12473Z" fill-rule="nonzero"/><path fill="#4285f4" clip-path="url(#id_0)" d="M325.77145 216.64212C325.77145 218.29897 324.42828 219.64212 322.77145 219.64212C321.1146 219.64212 319.77145 218.29897 319.77145 216.64212C319.77145 214.98526 321.1146 213.64212 322.77145 213.64212C324.42828 213.64212 325.77145 214.98526 325.77145 216.64212Z" fill-rule="nonzero"/><path fill="#4285f4" clip-path="url(#id_0)" d="M326.43436 213.11035C326.43436 214.7672 325.09122 216.11035 323.43436 216.11035C321.7775 216.11035 320.43436 214.7672 320.43436 213.11035C320.43436 211.45349 321.7775 210.11035 323.43436 210.11035C325.09122 210.11035 326.43436 211.45349 326.43436 213.11035Z" fill-rule="nonzero"/><path fill="#4285f4" clip-path="url(#id_0)" d="M326.98984 222.2437C326.98984 223.90056 325.6467 225.2437 323.98984 225.2437C322.33298 225.2437 320.98984 223.90056 320.98984 222.2437C320.98984 220.58684 322.33298 219.2437 323.98984 219.2437C325.6467 219.2437 326.98984 220.58684 326.98984 222.2437Z" fill-rule="nonzero"/><path fill="#4285f4" clip-path="url(#id_0)" d="M327.1 221.81088C327.1 223.46773 325.75687 224.81088 324.1 224.81088C322.44315 224.81088 321.1 223.46773 321.1 221.81088C321.1 220.15402 322.44315 218.81088 324.1 218.81088C325.75687 218.81088 327.1 220.15402 327.1 221.81088Z" fill-rule="nonzero"/><path fill="#4285f4" clip-path="url(#id_0)" d="M329.6937 211.93512C329.6937 213.59198 328.35052 214.93512 326.6937 214.93512C325.03683 214.93512 323.6937 213.59198 323.6937 211.93512C323.6937 210.27826 325.03683 208.93512 326.6937 208.93512C328.35052 208.93512 329.6937 210.27826 329.6937 211.93512Z" fill-rule="nonzero"/><path fill="#4285f4" clip-path="url(#id_0)" d="M330.58444 211.3948C330.58444 213.05167 329.2413 214.3948 327.58444 214.3948C325.92758 214.3948 324.58444 213.05167 324.58444 211.3948C324.58444 209.73796 325.92758 208.3948 327.58444 208.3948C329.2413 208.3948 330.58444 209.73796 330.58444 211.3948Z" fill-rule="nonzero"/><path fill="#4285f4" clip-path="url(#id_0)" d="M333.0115 208.0973C333.0115 209.75417 331.66833 211.0973 330.0115 211.0973C328.35464 211.0973 327.0115 209.75417 327.0115 208.0973C327.0115 206.44044 328.35464 205.0973 330.0115 205.0973C331.66833 205.0973 333.0115 206.44044 333.0115 208.0973Z" fill-rule="nonzero"/><path fill="#4285f4" clip-path="url(#id_0)" d="M335.7077 207.63196C335.7077 209.2888 334.36456 210.63196 332.7077 210.63196C331.05084 210.63196 329.7077 209.2888 329.7077 207.63196C329.7077 205.9751 331.05084 204.63196 332.7077 204.63196C334.36456 204.63196 335.7077 205.9751 335.7077 207.63196Z" fill-rule="nonzero"/><path fill="#4285f4" clip-path="url(#id_0)" d="M336.1796 205.84767C336.1796 207.50453 334.83646 208.84767 333.1796 208.84767C331.52277 208.84767 330.1796 207.50453 330.1796 205.84767C330.1796 204.19081 331.52277 202.84767 333.1796 202.84767C334.83646 202.84767 336.1796 204.19081 336.1796 205.84767Z" fill-rule="nonzero"/><path fill="#4285f4" clip-path="url(#id_0)" d="M336.88235 208.13528C336.88235 209.79213 335.53918 211.13528 333.88235 211.13528C332.2255 211.13528 330.88235 209.79213 330.88235 208.13528C330.88235 206.47842 332.2255 205.13528 333.88235 205.13528C335.53918 205.13528 336.88235 206.47842 336.88235 208.13528Z" fill-rule="nonzero"/><path fill="#4285f4" clip-path="url(#id_0)" d="M337.24496 201.52975C337.24496 203.18661 335.90182 204.52975 334.24496 204.52975C332.5881 204.52975 331.24496 203.18661 331.24496 201.52975C331.24496 199.87291 332.5881 198.52975 334.24496 198.52975C335.90182 198.52975 337.24496 199.87291 337.24496 201.52975Z" fill-rule="nonzero"/><path fill="#4285f4" clip-path="url(#id_0)" d="M337.9499 207.46976C337.9499 209.1266 336.60675 210.46976 334.9499 210.46976C333.29303 210.46976 331.9499 209.1266 331.9499 207.46976C331.9499 205.8129 333.29303 204.46976 334.9499 204.46976C336.60675 204.46976 337.9499 205.8129 337.9499 207.46976Z" fill-rule="nonzero"/><path fill="#4285f4" clip-path="url(#id_0)" d="M338.44724 203.57301C338.44724 205.22987 337.1041 206.57301 335.44724 206.57301C333.79037 206.57301 332.44724 205.22987 332.44724 203.57301C332.44724 201.91617 333.79037 200.57301 335.44724 200.57301C337.1041 200.57301 338.44724 201.91617 338.44724 203.57301Z" fill-rule="nonzero"/><path fill="#4285f4" clip-path="url(#id_0)" d="M340.52258 213.08162C340.52258 214.73846 339.1794 216.08162 337.52258 216.08162C335.86572 216.08162 334.52258 214.73846 334.52258 213.08162C334.52258 211.42476 335.86572 210.08162 337.52258 210.08162C339.1794 210.08162 340.52258 211.42476 340.52258 213.08162Z" fill-rule="nonzero"/><path fill="#4285f4" clip-path="url(#id_0)" d="M342.12036 199.44513C342.12036 201.10199 340.77722 202.44513 339.12036 202.44513C337.4635 202.44513 336.12036 201.10199 336.12036 199.44513C336.12036 197.78828 337.4635 196.44513 339.12036 196.44513C340.77722 196.44513 342.12036 197.78828 342.12036 199.44513Z" fill-rule="nonzero"/><path fill="#4285f4" clip-path="url(#id_0)" d="M346.0596 204.45099C346.0596 206.10785 344.71643 207.45099 343.0596 207.45099C341.40274 207.45099 340.0596 206.10785 340.0596 204.45099C340.0596 202.79414 341.40274 201.45099 343.0596 201.45099C344.71643 201.45099 346.0596 202.79414 346.0596 204.45099Z" fill-rule="nonzero"/><path fill="#4285f4" clip-path="url(#id_0)" d="M347.38513 222.79152C347.38513 224.44838 346.042 225.79152 344.38513 225.79152C342.7283 225.79152 341.38513 224.44838 341.38513 222.79152C341.38513 221.13467 342.7283 219.79152 344.38513 219.79152C346.042 219.79152 347.38513 221.13467 347.38513 222.79152Z" fill-rule="nonzero"/><path fill="#4285f4" clip-path="url(#id_0)" d="M347.45886 207.68199C347.45886 209.33885 346.1157 210.68199 344.45886 210.68199C342.802 210.68199 341.45886 209.33885 341.45886 207.68199C341.45886 206.02515 342.802 204.68199 344.45886 204.68199C346.1157 204.68199 347.45886 206.02515 347.45886 207.68199Z" fill-rule="nonzero"/><path fill="#4285f4" clip-path="url(#id_0)" d="M348.8257 190.85342C348.8257 192.51028 347.48257 193.85342 345.8257 193.85342C344.16885 193.85342 342.8257 192.51028 342.8257 190.85342C342.8257 189.19658 344.16885 187.85342 345.8257 187.85342C347.48257 187.85342 348.8257 189.19658 348.8257 190.85342Z" fill-rule="nonzero"/><path fill="#4285f4" clip-path="url(#id_0)" d="M349.96274 190.19011C349.96274 191.84697 348.6196 193.19011 346.96274 193.19011C345.30588 193.19011 343.96274 191.84697 343.96274 190.19011C343.96274 188.53326 345.30588 187.19011 346.96274 187.19011C348.6196 187.19011 349.96274 188.53326 349.96274 190.19011Z" fill-rule="nonzero"/><path fill="#4285f4" clip-path="url(#id_0)" d="M351.11993 190.37503C351.11993 192.03189 349.77676 193.37503 348.11993 193.37503C346.46307 193.37503 345.11993 192.03189 345.11993 190.37503C345.11993 188.71819 346.46307 187.37503 348.11993 187.37503C349.77676 187.37503 351.11993 188.71819 351.11993 190.37503Z" fill-rule="nonzero"/><path fill="#4285f4" clip-path="url(#id_0)" d="M351.58667 189.78314C351.58667 191.43999 350.24353 192.78314 348.58667 192.78314C346.9298 192.78314 345.58667 191.43999 345.58667 189.78314C345.58667 188.12628 346.9298 186.78314 348.58667 186.78314C350.24353 186.78314 351.58667 188.12628 351.58667 189.78314Z" fill-rule="nonzero"/><path fill="#4285f4" clip-path="url(#id_0)" d="M351.785 190.15002C351.785 191.80688 350.44186 193.15002 348.785 193.15002C347.12814 193.15002 345.785 191.80688 345.785 190.15002C345.785 188.49316 347.12814 187.15002 348.785 187.15002C350.44186 187.15002 351.785 188.49316 351.785 190.15002Z" fill-rule="nonzero"/><path fill="#4285f4" clip-path="url(#id_0)" d="M351.80698 189.85466C351.80698 191.5115 350.46384 192.85466 348.80698 192.85466C347.15012 192.85466 345.80698 191.5115 345.80698 189.85466C345.80698 188.1978 347.15012 186.85466 348.80698 186.85466C350.46384 186.85466 351.80698 188.1978 351.80698 189.85466Z" fill-rule="nonzero"/><path fill="#4285f4" clip-path="url(#id_0)" d="M351.98236 189.16093C351.98236 190.8178 350.6392 192.16093 348.98236 192.16093C347.3255 192.16093 345.98236 190.8178 345.98236 189.16093C345.98236 187.50409 347.3255 186.16093 348.98236 186.16093C350.6392 186.16093 351.98236 187.50409 351.98236 189.16093Z" fill-rule="nonzero"/><path fill="#4285f4" clip-path="url(#id_0)" d="M352.04062 186.22588C352.04062 187.88274 350.69748 189.22588 349.04062 189.22588C347.3838 189.22588 346.04062 187.88274 346.04062 186.22588C346.04062 184.56903 347.3838 183.22588 349.04062 183.22588C350.69748 183.22588 352.04062 184.56903 352.04062 186.22588Z" fill-rule="nonzero"/><path fill="#4285f4" clip-path="url(#id_0)" d="M352.58286 188.25717C352.58286 189.91403 351.23972 191.25717 349.58286 191.25717C347.926 191.25717 346.58286 189.91403 346.58286 188.25717C346.58286 186.60033 347.926 185.25717 349.58286 185.25717C351.23972 185.25717 352.58286 186.60033 352.58286 188.25717Z" fill-rule="nonzero"/><path fill="#4285f4" clip-path="url(#id_0)" d="M353.0326 186.26216C353.0326 187.919 351.68945 189.26216 350.0326 189.26216C348.37576 189.26216 347.0326 187.919 347.0326 186.26216C347.0326 184.6053 348.37576 183.26216 350.0326 183.26216C351.68945 183.26216 353.0326 184.6053 353.0326 186.26216Z" fill-rule="nonzero"/><path fill="#4285f4" clip-path="url(#id_0)" d="M356.05078 186.56819C356.05078 188.22505 354.7076 189.56819 353.05078 189.56819C351.39392 189.56819 350.05078 188.22505 350.05078 186.56819C350.05078 184.91135 351.39392 183.56819 353.05078 183.56819C354.7076 183.56819 356.05078 184.91135 356.05078 186.56819Z" fill-rule="nonzero"/><path fill="#4285f4" clip-path="url(#id_0)" d="M356.86383 218.16512C356.86383 219.82196 355.52066 221.16512 353.86383 221.16512C352.20697 221.16512 350.86383 219.82196 350.86383 218.16512C350.86383 216.50826 352.20697 215.16512 353.86383 215.16512C355.52066 215.16512 356.86383 216.50826 356.86383 218.16512Z" fill-rule="nonzero"/><path fill="#4285f4" clip-path="url(#id_0)" d="M357.03082 184.37047C357.03082 186.02731 355.68768 187.37047 354.03082 187.37047C352.374 187.37047 351.03082 186.02731 351.03082 184.37047C351.03082 182.71361 352.374 181.37047 354.03082 181.37047C355.68768 181.37047 357.03082 182.71361 357.03082 184.37047Z" fill-rule="nonzero"/><path fill="#4285f4" clip-path="url(#id_0)" d="M357.15244 184.08788C357.15244 185.74474 355.8093 187.08788 354.15244 187.08788C352.49557 187.08788 351.15244 185.74474 351.15244 184.08788C351.15244 182.43103 352.49557 181.08788 354.15244 181.08788C355.8093 181.08788 357.15244 182.43103 357.15244 184.08788Z" fill-rule="nonzero"/><path fill="#4285f4" clip-path="url(#id_0)" d="M358.49048 183.03757C358.49048 184.69441 357.1473 186.03757 355.49048 186.03757C353.83362 186.03757 352.49048 184.69441 352.49048 183.03757C352.49048 181.3807 353.83362 180.03757 355.49048 180.03757C357.1473 180.03757 358.49048 181.3807 358.49048 183.03757Z" fill-rule="nonzero"/><path fill="#4285f4" clip-path="url(#id_0)" d="M358.66302 182.06023C358.66302 183.71707 357.31985 185.06023 355.66302 185.06023C354.00616 185.06023 352.66302 183.71707 352.66302 182.06023C352.66302 180.40337 354.00616 179.06023 355.66302 179.06023C357.31985 179.06023 358.66302 180.40337 358.66302 182.06023Z" fill-rule="nonzero"/><path fill="#4285f4" clip-path="url(#id_0)" d="M359.4121 184.99799C359.4121 186.65485 358.06897 187.99799 356.4121 187.99799C354.75525 187.99799 353.4121 186.65485 353.4121 184.99799C353.4121 183.34114 354.75525 181.99799 356.4121 181.99799C358.06897 181.99799 359.4121 183.34114 359.4121 184.99799Z" fill-rule="nonzero"/><path fill="#4285f4" clip-path="url(#id_0)" d="M361.30222 198.68109C361.30222 200.33795 359.95908 201.68109 358.30222 201.68109C356.6454 201.68109 355.30222 200.33795 355.30222 198.68109C355.30222 197.02425 356.6454 195.68109 358.30222 195.68109C359.95908 195.68109 361.30222 197.02425 361.30222 198.68109Z" fill-rule="nonzero"/><path fill="#4285f4" clip-path="url(#id_0)" d="M362.28995 213.15349C362.28995 214.81035 360.94678 216.15349 359.28995 216.15349C357.6331 216.15349 356.28995 214.81035 356.28995 213.15349C356.28995 211.49664 357.6331 210.15349 359.28995 210.15349C360.94678 210.15349 362.28995 211.49664 362.28995 213.15349Z" fill-rule="nonzero"/><path fill="#4285f4" clip-path="url(#id_0)" d="M362.41306 215.38861C362.41306 217.04547 361.06992 218.38861 359.41306 218.38861C357.75623 218.38861 356.41306 217.04547 356.41306 215.38861C356.41306 213.73175 357.75623 212.38861 359.41306 212.38861C361.06992 212.38861 362.41306 213.73175 362.41306 215.38861Z" fill-rule="nonzero"/><path fill="#4285f4" clip-path="url(#id_0)" d="M367.15982 179.9524C367.15982 181.60925 365.81668 182.9524 364.15982 182.9524C362.503 182.9524 361.15982 181.60925 361.15982 179.9524C361.15982 178.29555 362.503 176.9524 364.15982 176.9524C365.81668 176.9524 367.15982 178.29555 367.15982 179.9524Z" fill-rule="nonzero"/><path fill="#4285f4" clip-path="url(#id_0)" d="M370.7664 170.02036C370.7664 171.67722 369.42325 173.02036 367.7664 173.02036C366.10956 173.02036 364.7664 171.67722 364.7664 170.02036C364.7664 168.36351 366.10956 167.02036 367.7664 167.02036C369.42325 167.02036 370.7664 168.36351 370.7664 170.02036Z" fill-rule="nonzero"/><path fill="#4285f4" clip-path="url(#id_0)" d="M371.6196 169.36334C371.6196 171.0202 370.27646 172.36334 368.6196 172.36334C366.96274 172.36334 365.6196 171.0202 365.6196 169.36334C365.6196 167.70648 366.96274 166.36334 368.6196 166.36334C370.27646 166.36334 371.6196 167.70648 371.6196 169.36334Z" fill-rule="nonzero"/><path fill="#4285f4" clip-path="url(#id_0)" d="M372.0896 169.47208C372.0896 171.12894 370.74643 172.47208 369.0896 172.47208C367.43274 172.47208 366.0896 171.12894 366.0896 169.47208C366.0896 167.81523 367.43274 166.47208 369.0896 166.47208C370.74643 166.47208 372.0896 167.81523 372.0896 169.47208Z" fill-rule="nonzero"/><path fill="#4285f4" clip-path="url(#id_0)" d="M374.7848 166.71611C374.7848 168.37297 373.44165 169.71611 371.7848 169.71611C370.12793 169.71611 368.7848 168.37297 368.7848 166.71611C368.7848 165.05927 370.12793 163.71611 371.7848 163.71611C373.44165 163.71611 374.7848 165.05927 374.7848 166.71611Z" fill-rule="nonzero"/><path fill="#4285f4" clip-path="url(#id_0)" d="M380.329 154.46492C380.329 156.12178 378.98587 157.46492 377.329 157.46492C375.67215 157.46492 374.329 156.12178 374.329 154.46492C374.329 152.80807 375.67215 151.46492 377.329 151.46492C378.98587 151.46492 380.329 152.80807 380.329 154.46492Z" fill-rule="nonzero"/><path fill="#4285f4" clip-path="url(#id_0)" d="M383.27975 158.76352C383.27975 160.42038 381.9366 161.76352 380.27975 161.76352C378.6229 161.76352 377.27975 160.42038 377.27975 158.76352C377.27975 157.10667 378.6229 155.76352 380.27975 155.76352C381.9366 155.76352 383.27975 157.10667 383.27975 158.76352Z" fill-rule="nonzero"/><path fill="#4285f4" clip-path="url(#id_0)" d="M388.0459 152.67712C388.0459 154.33398 386.70276 155.67712 385.0459 155.67712C383.38904 155.67712 382.0459 154.33398 382.0459 152.67712C382.0459 151.02028 383.38904 149.67712 385.0459 149.67712C386.70276 149.67712 388.0459 151.02028 388.0459 152.67712Z" fill-rule="nonzero"/><path fill="#4285f4" clip-path="url(#id_0)" d="M414.7228 181.54831C414.7228 183.20517 413.37964 184.54831 411.7228 184.54831C410.06595 184.54831 408.7228 183.20517 408.7228 181.54831C408.7228 179.89146 410.06595 178.54831 411.7228 178.54831C413.37964 178.54831 414.7228 179.89146 414.7228 181.54831Z" fill-rule="nonzero"/><path fill="#ff0000" clip-path="url(#id_0)" d="M419.51416 211.5741C419.51416 214.8878 416.82785 217.5741 413.51416 217.5741C410.20044 217.5741 407.51416 214.8878 407.51416 211.5741C407.51416 208.26038 410.20044 205.5741 413.51416 205.5741C416.82785 205.5741 419.51416 208.26038 419.51416 211.5741Z" fill-rule="nonzero"/><path fill="#4285f4" clip-path="url(#id_0)" d="M418.55173 145.02461C418.55173 146.68147 417.2086 148.02461 415.55173 148.02461C413.89487 148.02461 412.55173 146.68147 412.55173 145.02461C412.55173 143.36775 413.89487 142.02461 415.55173 142.02461C417.2086 142.02461 418.55173 143.36775 418.55173 145.02461Z" fill-rule="nonzero"/><path fill="#4285f4" clip-path="url(#id_0)" d="M446.53305 91.83733C446.53305 93.49419 445.1899 94.83733 443.53305 94.83733C441.8762 94.83733 440.53305 93.49419 440.53305 91.83733C440.53305 90.18048 441.8762 88.83733 443.53305 88.83733C445.1899 88.83733 446.53305 90.18048 446.53305 91.83733Z" fill-rule="nonzero"/><path fill="#4285f4" clip-path="url(#id_0)" d="M446.76266 92.69758C446.76266 94.35444 445.4195 95.69758 443.76266 95.69758C442.1058 95.69758 440.76266 94.35444 440.76266 92.69758C440.76266 91.040726 442.1058 89.69758 443.76266 89.69758C445.4195 89.69758 446.76266 91.040726 446.76266 92.69758Z" fill-rule="nonzero"/><path fill="#4285f4" clip-path="url(#id_0)" d="M446.85425 92.194145C446.85425 93.851 445.5111 95.194145 443.85425 95.194145C442.1974 95.194145 440.85425 93.851 440.85425 92.194145C440.85425 90.53729 442.1974 89.194145 443.85425 89.194145C445.5111 89.194145 446.85425 90.53729 446.85425 92.194145Z" fill-rule="nonzero"/><path fill="#4285f4" clip-path="url(#id_0)" d="M448.81888 91.684654C448.81888 93.34151 447.4757 94.684654 445.81888 94.684654C444.16202 94.684654 442.81888 93.34151 442.81888 91.684654C442.81888 90.027794 444.16202 88.684654 445.81888 88.684654C447.4757 88.684654 448.81888 90.027794 448.81888 91.684654Z" fill-rule="nonzero"/><path fill="#4285f4" clip-path="url(#id_0)" d="M449.75793 93.915504C449.75793 95.57236 448.4148 96.915504 446.75793 96.915504C445.10107 96.915504 443.75793 95.57236 443.75793 93.915504C443.75793 92.258644 445.10107 90.915504 446.75793 90.915504C448.4148 90.915504 449.75793 92.258644 449.75793 93.915504Z" fill-rule="nonzero"/><path fill="#4285f4" clip-path="url(#id_0)" d="M450.0048 90.016846C450.0048 91.6737 448.66165 93.016846 447.0048 93.016846C445.34793 93.016846 444.0048 91.6737 444.0048 90.016846C444.0048 88.359985 445.34793 87.016846 447.0048 87.016846C448.66165 87.016846 450.0048 88.359985 450.0048 90.016846Z" fill-rule="nonzero"/><path fill="#4285f4" clip-path="url(#id_0)" d="M450.06583 91.41482C450.06583 93.07167 448.7227 94.41482 447.06583 94.41482C445.40897 94.41482 444.06583 93.07167 444.06583 91.41482C444.06583 89.757965 445.40897 88.41482 447.06583 88.41482C448.7227 88.41482 450.06583 89.757965 450.06583 91.41482Z" fill-rule="nonzero"/><path fill="#4285f4" clip-path="url(#id_0)" d="M450.72562 90.808945C450.72562 92.4658 449.38248 93.808945 447.72562 93.808945C446.06876 93.808945 444.72562 92.4658 444.72562 90.808945C444.72562 89.15209 446.06876 87.808945 447.72562 87.808945C449.38248 87.808945 450.72562 89.15209 450.72562 90.808945Z" fill-rule="nonzero"/><path fill="#4285f4" clip-path="url(#id_0)" d="M450.7321 92.78425C450.7321 94.4411 449.38895 95.78425 447.7321 95.78425C446.07523 95.78425 444.7321 94.4411 444.7321 92.78425C444.7321 91.127396 446.07523 89.78425 447.7321 89.78425C449.38895 89.78425 450.7321 91.127396 450.7321 92.78425Z" fill-rule="nonzero"/><path fill="#4285f4" clip-path="url(#id_0)" d="M450.84302 92.94802C450.84302 94.60488 449.49988 95.94802 447.84302 95.94802C446.18616 95.94802 444.84302 94.60488 444.84302 92.94802C444.84302 91.29117 446.18616 89.94802 447.84302 89.94802C449.49988 89.94802 450.84302 91.29117 450.84302 92.94802Z" fill-rule="nonzero"/><path fill="#4285f4" clip-path="url(#id_0)" d="M450.91327 93.4387C450.91327 95.09555 449.57013 96.4387 447.91327 96.4387C446.25644 96.4387 444.91327 95.09555 444.91327 93.4387C444.91327 91.781845 446.25644 90.4387 447.91327 90.4387C449.57013 90.4387 450.91327 91.781845 450.91327 93.4387Z" fill-rule="nonzero"/><path fill="#4285f4" clip-path="url(#id_0)" d="M451.0307 89.17407C451.0307 90.830925 449.68756 92.17407 448.0307 92.17407C446.37384 92.17407 445.0307 90.830925 445.0307 89.17407C445.0307 87.51722 446.37384 86.17407 448.0307 86.17407C449.68756 86.17407 451.0307 87.51722 451.0307 89.17407Z" fill-rule="nonzero"/><path fill="#4285f4" clip-path="url(#id_0)" d="M452.48215 89.806786C452.48215 91.463646 451.139 92.806786 449.48215 92.806786C447.82532 92.806786 446.48215 91.463646 446.48215 89.806786C446.48215 88.14993 447.82532 86.806786 449.48215 86.806786C451.139 86.806786 452.48215 88.14993 452.48215 89.806786Z" fill-rule="nonzero"/><path fill="#4285f4" clip-path="url(#id_0)" d="M452.6549 91.63432C452.6549 93.291176 451.31177 94.63432 449.6549 94.63432C447.99805 94.63432 446.6549 93.291176 446.6549 91.63432C446.6549 89.97747 447.99805 88.63432 449.6549 88.63432C451.31177 88.63432 452.6549 89.97747 452.6549 91.63432Z" fill-rule="nonzero"/><path fill="#4285f4" clip-path="url(#id_0)" d="M453.33948 89.25084C453.33948 90.90769 451.99634 92.25084 450.33948 92.25084C448.68262 92.25084 447.33948 90.90769 447.33948 89.25084C447.33948 87.59399 448.68262 86.25084 450.33948 86.25084C451.99634 86.25084 453.33948 87.59399 453.33948 89.25084Z" fill-rule="nonzero"/><path fill="#4285f4" clip-path="url(#id_0)" d="M457.65836 92.89605C457.65836 94.55291 456.31522 95.89605 454.65836 95.89605C453.0015 95.89605 451.65836 94.55291 451.65836 92.89605C451.65836 91.2392 453.0015 89.89605 454.65836 89.89605C456.31522 89.89605 457.65836 91.2392 457.65836 92.89605Z" fill-rule="nonzero"/><path fill="#000000" fill-opacity="0.0" clip-path="url(#id_0)" d="M175.66705 363.19028C175.66705 364.84714 174.32391 366.19028 172.66705 366.19028C171.01021 366.19028 169.66705 364.84714 169.66705 363.19028C169.66705 361.53342 171.01021 360.19028 172.66705 360.19028C174.32391 360.19028 175.66705 361.53342 175.66705 363.19028Z" fill-rule="nonzero"/><path fill="#000000" fill-opacity="0.0" clip-path="url(#id_0)" d="M457.65836 80.62646C457.65836 82.28331 456.31522 83.62646 454.65836 83.62646C453.0015 83.62646 451.65836 82.28331 451.65836 80.62646C451.65836 78.969604 453.0015 77.62646 454.65836 77.62646C456.31522 77.62646 457.65836 78.969604 457.65836 80.62646Z" fill-rule="nonzero"/><path fill="#000000" d="M252.14062 497.6L250.67188 497.6L250.67188 484.70938L252.26562 484.70938L252.26562 489.31876Q253.26562 488.05313 254.8125 488.05313Q255.67188 488.05313 256.4375 488.4125Q257.21875 488.75626 257.70312 489.38126Q258.20312 490.00626 258.48438 490.89688Q258.76562 491.7875 258.76562 492.7875Q258.76562 495.19376 257.57812 496.50626Q256.40625 497.81876 254.73438 497.81876Q253.09375 497.81876 252.14062 496.42813L252.14062 497.6ZM252.125 492.86563Q252.125 494.5375 252.57812 495.2875Q253.32812 496.50626 254.60938 496.50626Q255.64062 496.50626 256.39062 495.61563Q257.15625 494.70938 257.15625 492.92813Q257.15625 491.1 256.42188 490.225Q255.70312 489.35 254.67188 489.35Q253.64062 489.35 252.875 490.25626Q252.125 491.1625 252.125 492.86563ZM266.78125 496.44376Q265.90625 497.19376 265.07812 497.50626Q264.26562 497.81876 263.34375 497.81876Q261.79688 497.81876 260.96875 497.06876Q260.15625 496.30313 260.15625 495.13126Q260.15625 494.45938 260.46875 493.89688Q260.78125 493.31876 261.28125 492.975Q261.78125 492.63126 262.42188 492.45938Q262.89062 492.33438 263.82812 492.225Q265.73438 491.99063 266.64062 491.67813Q266.65625 491.35 266.65625 491.25626Q266.65625 490.30313 266.20312 489.89688Q265.59375 489.36563 264.40625 489.36563Q263.28125 489.36563 262.75 489.75626Q262.21875 490.14688 261.96875 491.14688L260.42188 490.92813Q260.64062 489.92813 261.10938 489.31876Q261.59375 488.70938 262.5 488.38126Q263.42188 488.05313 264.64062 488.05313Q265.82812 488.05313 266.57812 488.33438Q267.32812 488.61563 267.67188 489.05313Q268.03125 489.475 268.17188 490.11563Q268.25 490.52188 268.25 491.58438L268.25 493.69376Q268.25 495.89688 268.34375 496.49063Q268.45312 497.06876 268.75 497.6L267.09375 497.6Q266.84375 497.1 266.78125 496.44376ZM266.64062 492.9125Q265.78125 493.27188 264.0625 493.50626Q263.09375 493.64688 262.6875 493.83438Q262.28125 494.00626 262.0625 494.35Q261.84375 494.67813 261.84375 495.1Q261.84375 495.725 262.3125 496.14688Q262.79688 496.56876 263.71875 496.56876Q264.64062 496.56876 265.34375 496.17813Q266.0625 495.77188 266.39062 495.08438Q266.64062 494.5375 266.64062 493.49063L266.64062 492.9125ZM270.04688 494.81876L271.625 494.56876Q271.75 495.50626 272.34375 496.00626Q272.95312 496.50626 274.03125 496.50626Q275.125 496.50626 275.65625 496.06876Q276.1875 495.61563 276.1875 495.02188Q276.1875 494.49063 275.71875 494.17813Q275.39062 493.975 274.09375 493.64688Q272.35938 493.20938 271.6875 492.89688Q271.01562 492.56876 270.65625 492.00626Q270.3125 491.42813 270.3125 490.74063Q270.3125 490.11563 270.59375 489.58438Q270.89062 489.05313 271.375 488.70938Q271.75 488.42813 272.39062 488.24063Q273.03125 488.05313 273.75 488.05313Q274.85938 488.05313 275.6875 488.38126Q276.51562 488.69376 276.90625 489.24063Q277.3125 489.77188 277.45312 490.67813L275.90625 490.88126Q275.79688 490.1625 275.29688 489.75626Q274.79688 489.35 273.875 489.35Q272.78125 489.35 272.3125 489.70938Q271.84375 490.06876 271.84375 490.55313Q271.84375 490.86563 272.04688 491.11563Q272.23438 491.36563 272.64062 491.5375Q272.89062 491.61563 274.04688 491.94376Q275.71875 492.38126 276.375 492.67813Q277.04688 492.95938 277.42188 493.50626Q277.8125 494.05313 277.8125 494.85Q277.8125 495.64688 277.34375 496.35Q276.89062 497.05313 276.01562 497.44376Q275.14062 497.81876 274.04688 497.81876Q272.21875 497.81876 271.26562 497.06876Q270.3125 496.30313 270.04688 494.81876ZM286.07812 494.6L287.71875 494.80313Q287.32812 496.225 286.28125 497.02188Q285.23438 497.81876 283.60938 497.81876Q281.5625 497.81876 280.35938 496.55313Q279.15625 495.2875 279.15625 493.00626Q279.15625 490.6625 280.35938 489.36563Q281.57812 488.05313 283.51562 488.05313Q285.39062 488.05313 286.57812 489.33438Q287.76562 490.6 287.76562 492.9125Q287.76562 493.05313 287.75 493.33438L280.79688 493.33438Q280.875 494.88126 281.65625 495.69376Q282.45312 496.50626 283.60938 496.50626Q284.48438 496.50626 285.09375 496.05313Q285.71875 495.6 286.07812 494.6ZM280.875 492.0375L286.09375 492.0375Q285.98438 490.86563 285.5 490.27188Q284.73438 489.35 283.53125 489.35Q282.45312 489.35 281.70312 490.08438Q280.96875 490.81876 280.875 492.0375ZM289.65625 497.6L289.65625 484.70938L291.23438 484.70938L291.23438 497.6L289.65625 497.6ZM293.70312 486.5375L293.70312 484.70938L295.28125 484.70938L295.28125 486.5375L293.70312 486.5375ZM293.70312 497.6L293.70312 488.27188L295.28125 488.27188L295.28125 497.6L293.70312 497.6ZM297.6875 497.6L297.6875 488.27188L299.10938 488.27188L299.10938 489.6Q300.14062 488.05313 302.07812 488.05313Q302.92188 488.05313 303.625 488.36563Q304.34375 488.6625 304.6875 489.1625Q305.04688 489.64688 305.1875 490.31876Q305.26562 490.75626 305.26562 491.86563L305.26562 497.6L303.6875 497.6L303.6875 491.92813Q303.6875 490.95938 303.5 490.475Q303.32812 489.99063 302.84375 489.70938Q302.375 489.42813 301.75 489.42813Q300.73438 489.42813 300.0 490.06876Q299.26562 490.70938 299.26562 492.50626L299.26562 497.6L297.6875 497.6ZM314.07812 494.6L315.71875 494.80313Q315.32812 496.225 314.28125 497.02188Q313.23438 497.81876 311.60938 497.81876Q309.5625 497.81876 308.35938 496.55313Q307.15625 495.2875 307.15625 493.00626Q307.15625 490.6625 308.35938 489.36563Q309.57812 488.05313 311.51562 488.05313Q313.39062 488.05313 314.57812 489.33438Q315.76562 490.6 315.76562 492.9125Q315.76562 493.05313 315.75 493.33438L308.79688 493.33438Q308.875 494.88126 309.65625 495.69376Q310.45312 496.50626 311.60938 496.50626Q312.48438 496.50626 313.09375 496.05313Q313.71875 495.6 314.07812 494.6ZM308.875 492.0375L314.09375 492.0375Q313.98438 490.86563 313.5 490.27188Q312.73438 489.35 311.53125 489.35Q310.45312 489.35 309.70312 490.08438Q308.96875 490.81876 308.875 492.0375Z" fill-rule="nonzero"/><path fill="#000000" d="M30.337505 294.4302L28.50938 294.4302L28.50938 292.85208L30.337505 292.85208L30.337505 294.4302ZM41.400005 294.4302L32.07188 294.4302L32.07188 292.85208L41.400005 292.85208L41.400005 294.4302ZM41.400005 290.44583L32.07188 290.44583L32.07188 289.02396L33.368755 289.02396Q32.69688 288.58646 32.275005 287.8677Q31.85313 287.13333 31.85313 286.19583Q31.85313 285.16458 32.29063 284.50833Q32.712505 283.83646 33.493755 283.57083Q31.85313 282.46146 31.85313 280.6802Q31.85313 279.28958 32.63438 278.5552Q33.400005 277.8052 34.993755 277.8052L41.400005 277.8052L41.400005 279.3677L35.525005 279.3677Q34.57188 279.3677 34.150005 279.52396Q33.72813 279.6802 33.47813 280.08646Q33.22813 280.4927 33.22813 281.03958Q33.22813 282.02396 33.88438 282.6802Q34.54063 283.32083 35.97813 283.32083L41.400005 283.32083L41.400005 284.89896L35.337505 284.89896Q34.275005 284.89896 33.75938 285.28958Q33.22813 285.6802 33.22813 286.5552Q33.22813 287.22708 33.587505 287.78958Q33.931255 288.35208 34.60313 288.6177Q35.275005 288.8677 36.556255 288.8677L41.400005 288.8677L41.400005 290.44583ZM44.97813 276.44583L32.07188 276.44583L32.07188 275.00833L33.275005 275.00833Q32.57188 274.4927 32.212505 273.85208Q31.85313 273.21146 31.85313 272.3052Q31.85313 271.10208 32.47813 270.19583Q33.087505 269.27396 34.212505 268.8052Q35.32188 268.33646 36.66563 268.33646Q38.087505 268.33646 39.243755 268.85208Q40.38438 269.3677 41.00938 270.35208Q41.618755 271.33646 41.618755 272.41458Q41.618755 273.19583 41.29063 273.83646Q40.94688 274.46146 40.431255 274.8677L44.97813 274.8677L44.97813 276.44583ZM36.79063 275.00833Q38.587505 275.00833 39.44688 274.28958Q40.306255 273.5552 40.306255 272.52396Q40.306255 271.46146 39.41563 270.71146Q38.525005 269.96146 36.650005 269.96146Q34.868755 269.96146 33.97813 270.69583Q33.087505 271.4302 33.087505 272.44583Q33.087505 273.46146 34.04063 274.2427Q34.97813 275.00833 36.79063 275.00833ZM41.400005 266.46146L32.07188 266.46146L32.07188 265.03958L33.47813 265.03958Q32.493755 264.4927 32.181255 264.03958Q31.85313 263.57083 31.85313 263.02396Q31.85313 262.21146 32.368755 261.39896L33.837505 261.9302Q33.493755 262.52396 33.493755 263.10208Q33.493755 263.6177 33.806255 264.03958Q34.118755 264.44583 34.66563 264.6177Q35.50938 264.88333 36.50938 264.88333L41.400005 264.88333L41.400005 266.46146ZM36.72813 261.03958Q34.13438 261.03958 32.88438 259.58646Q31.85313 258.38333 31.85313 256.66458Q31.85313 254.72708 33.118755 253.50833Q34.38438 252.28958 36.60313 252.28958Q38.400005 252.28958 39.431255 252.83646Q40.462505 253.3677 41.04063 254.39896Q41.618755 255.4302 41.618755 256.66458Q41.618755 258.6177 40.368755 259.83646Q39.10313 261.03958 36.72813 261.03958ZM36.72813 259.41458Q38.525005 259.41458 39.41563 258.63333Q40.306255 257.85208 40.306255 256.66458Q40.306255 255.47708 39.41563 254.69583Q38.50938 253.91458 36.681255 253.91458Q34.94688 253.91458 34.056255 254.71146Q33.16563 255.4927 33.16563 256.66458Q33.16563 257.85208 34.056255 258.63333Q34.94688 259.41458 36.72813 259.41458ZM41.400005 247.85208L32.07188 251.39896L32.07188 249.72708L37.650005 247.72708Q38.556255 247.39896 39.54063 247.13333Q38.79063 246.91458 37.75938 246.53958L32.07188 244.47708L32.07188 242.83646L41.400005 246.38333L41.400005 247.85208ZM38.400005 235.0552L38.60313 233.41458Q40.025005 233.8052 40.82188 234.85208Q41.618755 235.89896 41.618755 237.52396Q41.618755 239.57083 40.35313 240.77396Q39.087505 241.97708 36.806255 241.97708Q34.462505 241.97708 33.16563 240.77396Q31.85313 239.5552 31.85313 237.6177Q31.85313 235.7427 33.13438 234.5552Q34.400005 233.3677 36.712505 233.3677Q36.85313 233.3677 37.13438 233.38333L37.13438 240.33646Q38.681255 240.25833 39.493755 239.47708Q40.306255 238.6802 40.306255 237.52396Q40.306255 236.64896 39.85313 236.03958Q39.400005 235.41458 38.400005 235.0552ZM35.837505 240.25833L35.837505 235.03958Q34.66563 235.14896 34.07188 235.63333Q33.150005 236.39896 33.150005 237.60208Q33.150005 238.6802 33.88438 239.4302Q34.618755 240.16458 35.837505 240.25833ZM41.400005 225.38333L40.22813 225.38333Q41.618755 226.27396 41.618755 228.00833Q41.618755 229.1177 41.00938 230.0552Q40.38438 230.9927 39.29063 231.50833Q38.181255 232.02396 36.743755 232.02396Q35.337505 232.02396 34.212505 231.5552Q33.07188 231.08646 32.462505 230.16458Q31.85313 229.22708 31.85313 228.07083Q31.85313 227.22708 32.212505 226.57083Q32.57188 225.91458 33.13438 225.4927L28.50938 225.4927L28.50938 223.9302L41.400005 223.9302L41.400005 225.38333ZM36.743755 230.39896Q38.54063 230.39896 39.431255 229.64896Q40.306255 228.88333 40.306255 227.85208Q40.306255 226.82083 39.462505 226.10208Q38.618755 225.3677 36.868755 225.3677Q34.962505 225.3677 34.07188 226.10208Q33.16563 226.83646 33.16563 227.91458Q33.16563 228.97708 34.025005 229.69583Q34.88438 230.39896 36.743755 230.39896Z" fill-rule="nonzero"/><path fill="#000000" d="M72.9 433.36563Q72.9 431.83438 73.2125 430.9125Q73.525 429.975 74.13438 429.475Q74.75938 428.975 75.69688 428.975Q76.38438 428.975 76.9 429.25626Q77.43125 429.5375 77.775 430.06876Q78.11875 430.58438 78.30625 431.33438Q78.49375 432.08438 78.49375 433.36563Q78.49375 434.88126 78.18125 435.80313Q77.88438 436.725 77.25938 437.24063Q76.65 437.74063 75.69688 437.74063Q74.4625 437.74063 73.74375 436.85Q72.9 435.7875 72.9 433.36563ZM73.97813 433.36563Q73.97813 435.475 74.47813 436.17813Q74.97813 436.88126 75.69688 436.88126Q76.43125 436.88126 76.91563 436.17813Q77.41563 435.475 77.41563 433.36563Q77.41563 431.24063 76.91563 430.55313Q76.43125 429.85 75.68125 429.85Q74.9625 429.85 74.525 430.45938Q73.97813 431.24063 73.97813 433.36563ZM80.49375 437.6L80.49375 436.39688L81.69688 436.39688L81.69688 437.6L80.49375 437.6ZM82.9 433.36563Q82.9 431.83438 83.2125 430.9125Q83.525 429.975 84.13438 429.475Q84.75938 428.975 85.69688 428.975Q86.38438 428.975 86.9 429.25626Q87.43125 429.5375 87.775 430.06876Q88.11875 430.58438 88.30625 431.33438Q88.49375 432.08438 88.49375 433.36563Q88.49375 434.88126 88.18125 435.80313Q87.88438 436.725 87.25938 437.24063Q86.65 437.74063 85.69688 437.74063Q84.4625 437.74063 83.74375 436.85Q82.9 435.7875 82.9 433.36563ZM83.97813 433.36563Q83.97813 435.475 84.47813 436.17813Q84.97813 436.88126 85.69688 436.88126Q86.43125 436.88126 86.91563 436.17813Q87.41563 435.475 87.41563 433.36563Q87.41563 431.24063 86.91563 430.55313Q86.43125 429.85 85.68125 429.85Q84.9625 429.85 84.525 430.45938Q83.97813 431.24063 83.97813 433.36563ZM93.86875 437.6L92.82188 437.6L92.82188 430.88126Q92.43125 431.24063 91.80625 431.61563Q91.19688 431.975 90.7125 432.14688L90.7125 431.13126Q91.5875 430.70938 92.24375 430.13126Q92.91563 429.5375 93.19688 428.975L93.86875 428.975L93.86875 437.6Z" fill-rule="nonzero"/><path fill="#000000" d="M79.9 342.8823Q79.9 341.35104 80.2125 340.42917Q80.525 339.49167 81.13438 338.99167Q81.75938 338.49167 82.69688 338.49167Q83.38438 338.49167 83.9 338.77292Q84.43125 339.05417 84.775 339.58542Q85.11875 340.10104 85.30625 340.85104Q85.49375 341.60104 85.49375 342.8823Q85.49375 344.39792 85.18125 345.3198Q84.88438 346.24167 84.25938 346.7573Q83.65 347.2573 82.69688 347.2573Q81.4625 347.2573 80.74375 346.36667Q79.9 345.30417 79.9 342.8823ZM80.97813 342.8823Q80.97813 344.99167 81.47813 345.6948Q81.97813 346.39792 82.69688 346.39792Q83.43125 346.39792 83.91563 345.6948Q84.41563 344.99167 84.41563 342.8823Q84.41563 340.7573 83.91563 340.0698Q83.43125 339.36667 82.68125 339.36667Q81.9625 339.36667 81.525 339.97604Q80.97813 340.7573 80.97813 342.8823ZM87.49375 347.11667L87.49375 345.91354L88.69688 345.91354L88.69688 347.11667L87.49375 347.11667ZM93.86875 347.11667L92.82188 347.11667L92.82188 340.39792Q92.43125 340.7573 91.80625 341.1323Q91.19688 341.49167 90.7125 341.66354L90.7125 340.64792Q91.5875 340.22604 92.24375 339.64792Q92.91563 339.05417 93.19688 338.49167L93.86875 338.49167L93.86875 347.11667Z" fill-rule="nonzero"/><path fill="#000000" d="M93.86875 256.63333L92.82188 256.63333L92.82188 249.91458Q92.43125 250.27396 91.80625 250.64896Q91.19688 251.00833 90.7125 251.1802L90.7125 250.16458Q91.5875 249.7427 92.24375 249.16458Q92.91563 248.57083 93.19688 248.00833L93.86875 248.00833L93.86875 256.63333Z" fill-rule="nonzero"/><path fill="#000000" d="M86.86875 166.15L85.82188 166.15L85.82188 159.43124Q85.43125 159.79062 84.80625 160.16562Q84.19688 160.525 83.7125 160.69687L83.7125 159.68124Q84.5875 159.25937 85.24375 158.68124Q85.91563 158.0875 86.19688 157.525L86.86875 157.525L86.86875 166.15ZM89.9 161.91562Q89.9 160.38437 90.2125 159.4625Q90.525 158.525 91.13438 158.025Q91.75938 157.525 92.69688 157.525Q93.38438 157.525 93.9 157.80624Q94.43125 158.0875 94.775 158.61874Q95.11875 159.13437 95.30625 159.88437Q95.49375 160.63437 95.49375 161.91562Q95.49375 163.43124 95.18125 164.35312Q94.88438 165.275 94.25938 165.79062Q93.65 166.29062 92.69688 166.29062Q91.4625 166.29062 90.74375 165.4Q89.9 164.3375 89.9 161.91562ZM90.97813 161.91562Q90.97813 164.025 91.47813 164.72812Q91.97813 165.43124 92.69688 165.43124Q93.43125 165.43124 93.91563 164.72812Q94.41563 164.025 94.41563 161.91562Q94.41563 159.79062 93.91563 159.10312Q93.43125 158.4 92.68125 158.4Q91.9625 158.4 91.525 159.00937Q90.97813 159.79062 90.97813 161.91562Z" fill-rule="nonzero"/><path fill="#000000" d="M79.86875 75.666664L78.82188 75.666664L78.82188 68.947914Q78.43125 69.30729 77.80625 69.68229Q77.19688 70.041664 76.7125 70.21354L76.7125 69.197914Q77.5875 68.77604 78.24375 68.197914Q78.91563 67.604164 79.19688 67.041664L79.86875 67.041664L79.86875 75.666664ZM82.9 71.43229Q82.9 69.90104 83.2125 68.979164Q83.525 68.041664 84.13438 67.541664Q84.75938 67.041664 85.69688 67.041664Q86.38438 67.041664 86.9 67.322914Q87.43125 67.604164 87.775 68.135414Q88.11875 68.65104 88.30625 69.40104Q88.49375 70.15104 88.49375 71.43229Q88.49375 72.947914 88.18125 73.86979Q87.88438 74.791664 87.25938 75.30729Q86.65 75.80729 85.69688 75.80729Q84.4625 75.80729 83.74375 74.916664Q82.9 73.854164 82.9 71.43229ZM83.97813 71.43229Q83.97813 73.541664 84.47813 74.24479Q84.97813 74.947914 85.69688 74.947914Q86.43125 74.947914 86.91563 74.24479Q87.41563 73.541664 87.41563 71.43229Q87.41563 69.30729 86.91563 68.61979Q86.43125 67.916664 85.68125 67.916664Q84.9625 67.916664 84.525 68.52604Q83.97813 69.30729 83.97813 71.43229ZM89.9 71.43229Q89.9 69.90104 90.2125 68.979164Q90.525 68.041664 91.13438 67.541664Q91.75938 67.041664 92.69688 67.041664Q93.38438 67.041664 93.9 67.322914Q94.43125 67.604164 94.775 68.135414Q95.11875 68.65104 95.30625 69.40104Q95.49375 70.15104 95.49375 71.43229Q95.49375 72.947914 95.18125 73.86979Q94.88438 74.791664 94.25938 75.30729Q93.65 75.80729 92.69688 75.80729Q91.4625 75.80729 90.74375 74.916664Q89.9 73.854164 89.9 71.43229ZM90.97813 71.43229Q90.97813 73.541664 91.47813 74.24479Q91.97813 74.947914 92.69688 74.947914Q93.43125 74.947914 93.91563 74.24479Q94.41563 73.541664 94.41563 71.43229Q94.41563 69.30729 93.91563 68.61979Q93.43125 67.916664 92.68125 67.916664Q91.9625 67.916664 91.525 68.52604Q90.97813 69.30729 90.97813 71.43229Z" fill-rule="nonzero"/><path fill="#000000" d="M90.9 446.36563Q90.9 444.83438 91.2125 443.9125Q91.525 442.975 92.13438 442.475Q92.75938 441.975 93.69688 441.975Q94.38438 441.975 94.9 442.25626Q95.43125 442.5375 95.775 443.06876Q96.11875 443.58438 96.30625 444.33438Q96.49375 445.08438 96.49375 446.36563Q96.49375 447.88126 96.18125 448.80313Q95.88438 449.725 95.25938 450.24063Q94.65 450.74063 93.69688 450.74063Q92.4625 450.74063 91.74375 449.85Q90.9 448.7875 90.9 446.36563ZM91.97813 446.36563Q91.97813 448.475 92.47813 449.17813Q92.97813 449.88126 93.69688 449.88126Q94.43125 449.88126 94.91563 449.17813Q95.41563 448.475 95.41563 446.36563Q95.41563 444.24063 94.91563 443.55313Q94.43125 442.85 93.68125 442.85Q92.9625 442.85 92.525 443.45938Q91.97813 444.24063 91.97813 446.36563ZM98.49375 450.6L98.49375 449.39688L99.69688 449.39688L99.69688 450.6L98.49375 450.6ZM100.9 446.36563Q100.9 444.83438 101.2125 443.9125Q101.525 442.975 102.13438 442.475Q102.75938 441.975 103.69688 441.975Q104.38438 441.975 104.9 442.25626Q105.43125 442.5375 105.775 443.06876Q106.11875 443.58438 106.30625 444.33438Q106.49375 445.08438 106.49375 446.36563Q106.49375 447.88126 106.18125 448.80313Q105.88438 449.725 105.25938 450.24063Q104.65 450.74063 103.69688 450.74063Q102.4625 450.74063 101.74375 449.85Q100.9 448.7875 100.9 446.36563ZM101.97813 446.36563Q101.97813 448.475 102.47813 449.17813Q102.97813 449.88126 103.69688 449.88126Q104.43125 449.88126 104.91563 449.17813Q105.41563 448.475 105.41563 446.36563Q105.41563 444.24063 104.91563 443.55313Q104.43125 442.85 103.68125 442.85Q102.9625 442.85 102.525 443.45938Q101.97813 444.24063 101.97813 446.36563ZM111.86875 450.6L110.82188 450.6L110.82188 443.88126Q110.43125 444.24063 109.80625 444.61563Q109.19688 444.975 108.7125 445.14688L108.7125 444.13126Q109.5875 443.70938 110.24375 443.13126Q110.91563 442.5375 111.19688 441.975L111.86875 441.975L111.86875 450.6Z" fill-rule="nonzero"/><path fill="#000000" d="M184.7 446.36563Q184.7 444.83438 185.0125 443.9125Q185.325 442.975 185.93437 442.475Q186.55937 441.975 187.49687 441.975Q188.18437 441.975 188.7 442.25626Q189.23125 442.5375 189.575 443.06876Q189.91875 443.58438 190.10625 444.33438Q190.29375 445.08438 190.29375 446.36563Q190.29375 447.88126 189.98125 448.80313Q189.68437 449.725 189.05937 450.24063Q188.45 450.74063 187.49687 450.74063Q186.2625 450.74063 185.54375 449.85Q184.7 448.7875 184.7 446.36563ZM185.77812 446.36563Q185.77812 448.475 186.27812 449.17813Q186.77812 449.88126 187.49687 449.88126Q188.23125 449.88126 188.71562 449.17813Q189.21562 448.475 189.21562 446.36563Q189.21562 444.24063 188.71562 443.55313Q188.23125 442.85 187.48125 442.85Q186.7625 442.85 186.325 443.45938Q185.77812 444.24063 185.77812 446.36563ZM192.29375 450.6L192.29375 449.39688L193.49687 449.39688L193.49687 450.6L192.29375 450.6ZM198.66875 450.6L197.62187 450.6L197.62187 443.88126Q197.23125 444.24063 196.60625 444.61563Q195.99687 444.975 195.5125 445.14688L195.5125 444.13126Q196.3875 443.70938 197.04375 443.13126Q197.71562 442.5375 197.99687 441.975L198.66875 441.975L198.66875 450.6Z" fill-rule="nonzero"/><path fill="#000000" d="M283.96875 450.6L282.92188 450.6L282.92188 443.88126Q282.53125 444.24063 281.90625 444.61563Q281.29688 444.975 280.8125 445.14688L280.8125 444.13126Q281.6875 443.70938 282.34375 443.13126Q283.01562 442.5375 283.29688 441.975L283.96875 441.975L283.96875 450.6Z" fill-rule="nonzero"/><path fill="#000000" d="M370.76874 450.6L369.72186 450.6L369.72186 443.88126Q369.33124 444.24063 368.70624 444.61563Q368.09686 444.975 367.6125 445.14688L367.6125 444.13126Q368.4875 443.70938 369.14374 443.13126Q369.8156 442.5375 370.09686 441.975L370.76874 441.975L370.76874 450.6ZM373.8 446.36563Q373.8 444.83438 374.1125 443.9125Q374.425 442.975 375.03436 442.475Q375.65936 441.975 376.59686 441.975Q377.28436 441.975 377.8 442.25626Q378.33124 442.5375 378.675 443.06876Q379.01874 443.58438 379.20624 444.33438Q379.39374 445.08438 379.39374 446.36563Q379.39374 447.88126 379.08124 448.80313Q378.78436 449.725 378.15936 450.24063Q377.55 450.74063 376.59686 450.74063Q375.3625 450.74063 374.64374 449.85Q373.8 448.7875 373.8 446.36563ZM374.8781 446.36563Q374.8781 448.475 375.3781 449.17813Q375.8781 449.88126 376.59686 449.88126Q377.33124 449.88126 377.8156 449.17813Q378.3156 448.475 378.3156 446.36563Q378.3156 444.24063 377.8156 443.55313Q377.33124 442.85 376.58124 442.85Q375.8625 442.85 375.425 443.45938Q374.8781 444.24063 374.8781 446.36563Z" fill-rule="nonzero"/><path fill="#000000" d="M457.56876 450.6L456.52188 450.6L456.52188 443.88126Q456.13126 444.24063 455.50626 444.61563Q454.89688 444.975 454.4125 445.14688L454.4125 444.13126Q455.2875 443.70938 455.94376 443.13126Q456.61563 442.5375 456.89688 441.975L457.56876 441.975L457.56876 450.6ZM460.6 446.36563Q460.6 444.83438 460.9125 443.9125Q461.225 442.975 461.83438 442.475Q462.45938 441.975 463.39688 441.975Q464.08438 441.975 464.6 442.25626Q465.13126 442.5375 465.475 443.06876Q465.81876 443.58438 466.00626 444.33438Q466.19376 445.08438 466.19376 446.36563Q466.19376 447.88126 465.88126 448.80313Q465.58438 449.725 464.95938 450.24063Q464.35 450.74063 463.39688 450.74063Q462.1625 450.74063 461.44376 449.85Q460.6 448.7875 460.6 446.36563ZM461.67813 446.36563Q461.67813 448.475 462.17813 449.17813Q462.67813 449.88126 463.39688 449.88126Q464.13126 449.88126 464.61563 449.17813Q465.11563 448.475 465.11563 446.36563Q465.11563 444.24063 464.61563 443.55313Q464.13126 442.85 463.38126 442.85Q462.6625 442.85 462.225 443.45938Q461.67813 444.24063 461.67813 446.36563ZM467.6 446.36563Q467.6 444.83438 467.9125 443.9125Q468.225 442.975 468.83438 442.475Q469.45938 441.975 470.39688 441.975Q471.08438 441.975 471.6 442.25626Q472.13126 442.5375 472.475 443.06876Q472.81876 443.58438 473.00626 444.33438Q473.19376 445.08438 473.19376 446.36563Q473.19376 447.88126 472.88126 448.80313Q472.58438 449.725 471.95938 450.24063Q471.35 450.74063 470.39688 450.74063Q469.1625 450.74063 468.44376 449.85Q467.6 448.7875 467.6 446.36563ZM468.67813 446.36563Q468.67813 448.475 469.17813 449.17813Q469.67813 449.88126 470.39688 449.88126Q471.13126 449.88126 471.61563 449.17813Q472.11563 448.475 472.11563 446.36563Q472.11563 444.24063 471.61563 443.55313Q471.13126 442.85 470.38126 442.85Q469.6625 442.85 469.225 443.45938Q468.67813 444.24063 468.67813 446.36563Z" fill-rule="nonzero"/><path fill="#757575" d="M25.978125 43.4L25.978125 29.087502L32.321877 29.087502Q34.228127 29.087502 35.228127 29.478127Q36.228127 29.853127 36.821877 30.837502Q37.415627 31.806252 37.415627 32.99375Q37.415627 34.509377 36.43125 35.55625Q35.446877 36.603127 33.384377 36.884377Q34.134377 37.24375 34.525 37.603127Q35.353127 38.353127 36.103127 39.509377L38.5875 43.4L36.2125 43.4L34.30625 40.415627Q33.478127 39.134377 32.946877 38.446877Q32.415627 37.759377 31.978125 37.49375Q31.55625 37.2125 31.11875 37.103127Q30.790625 37.040627 30.071875 37.040627L27.86875 37.040627L27.86875 43.4L25.978125 43.4ZM27.86875 35.4L31.946875 35.4Q33.24375 35.4 33.9625 35.134377Q34.696877 34.86875 35.071877 34.275Q35.4625 33.68125 35.4625 32.99375Q35.4625 31.978127 34.728127 31.321877Q33.99375 30.665627 32.4 30.665627L27.86875 30.665627L27.86875 35.4ZM46.509377 43.4L46.509377 41.86875Q45.30625 43.634377 43.228127 43.634377Q42.30625 43.634377 41.509377 43.290627Q40.7125 42.93125 40.321877 42.4Q39.946877 41.86875 39.790627 41.0875Q39.68125 40.571877 39.68125 39.446877L39.68125 33.025L41.43125 33.025L41.43125 38.775Q41.43125 40.15 41.540627 40.634377Q41.7125 41.321877 42.24375 41.728127Q42.790627 42.11875 43.571877 42.11875Q44.36875 42.11875 45.05625 41.7125Q45.759377 41.30625 46.040627 40.61875Q46.3375 39.915627 46.3375 38.5875L46.3375 33.025L48.0875 33.025L48.0875 43.4L46.509377 43.4ZM49.7125 43.4L49.7125 33.025L51.30625 33.025L51.30625 34.509377Q52.446877 32.790627 54.603127 32.790627Q55.540627 32.790627 56.321877 33.134377Q57.11875 33.4625 57.509377 34.009377Q57.9 34.55625 58.05625 35.30625Q58.15 35.80625 58.15 37.025L58.15 43.4L56.384377 43.4L56.384377 37.0875Q56.384377 36.009377 56.18125 35.478127Q55.978127 34.946877 55.446877 34.634377Q54.93125 34.321877 54.228127 34.321877Q53.103127 34.321877 52.290627 35.040627Q51.478127 35.74375 51.478127 37.728127L51.478127 43.4L49.7125 43.4ZM69.55625 41.821877L69.80625 43.384377Q69.07188 43.540627 68.47813 43.540627Q67.525 43.540627 66.99375 43.24375Q66.47813 42.93125 66.25938 42.446877Q66.04063 41.946877 66.04063 40.36875L66.04063 34.4L64.75938 34.4L64.75938 33.025L66.04063 33.025L66.04063 30.462502L67.79063 29.400002L67.79063 33.025L69.55625 33.025L69.55625 34.4L67.79063 34.4L67.79063 40.4625Q67.79063 41.2125 67.88438 41.43125Q67.97813 41.634377 68.18125 41.775Q68.4 41.9 68.79063 41.9Q69.07188 41.9 69.55625 41.821877ZM71.72813 31.103127L71.72813 29.087502L73.49375 29.087502L73.49375 31.103127L71.72813 31.103127ZM71.72813 43.4L71.72813 33.025L73.49375 33.025L73.49375 43.4L71.72813 43.4ZM75.7125 43.4L75.7125 33.025L77.29063 33.025L77.29063 34.478127Q77.775 33.728127 78.5875 33.259377Q79.4 32.790627 80.43125 32.790627Q81.5875 32.790627 82.32188 33.275Q83.05625 33.74375 83.36875 34.603127Q84.60313 32.790627 86.57188 32.790627Q88.11875 32.790627 88.94688 33.65Q89.775 34.509377 89.775 36.275L89.775 43.4L88.025 43.4L88.025 36.86875Q88.025 35.80625 87.85313 35.353127Q87.68125 34.884377 87.22813 34.603127Q86.79063 34.321877 86.18125 34.321877Q85.0875 34.321877 84.35313 35.05625Q83.63438 35.775 83.63438 37.36875L83.63438 43.4L81.88438 43.4L81.88438 36.665627Q81.88438 35.49375 81.44688 34.915627Q81.025 34.321877 80.04063 34.321877Q79.30625 34.321877 78.66563 34.7125Q78.04063 35.103127 77.75938 35.853127Q77.47813 36.603127 77.47813 38.025L77.47813 43.4L75.7125 43.4ZM98.82188 40.05625L100.63438 40.290627Q100.2125 41.86875 99.04063 42.759377Q97.88438 43.634377 96.07188 43.634377Q93.80625 43.634377 92.4625 42.24375Q91.13438 40.8375 91.13438 38.30625Q91.13438 35.68125 92.47813 34.24375Q93.82188 32.790627 95.97813 32.790627Q98.05625 32.790627 99.36875 34.2125Q100.69688 35.61875 100.69688 38.196877Q100.69688 38.353127 100.68125 38.665627L92.94688 38.665627Q93.04063 40.36875 93.91563 41.275Q94.79063 42.18125 96.0875 42.18125Q97.05625 42.18125 97.72813 41.68125Q98.41563 41.165627 98.82188 40.05625ZM93.04063 37.2125L98.8375 37.2125Q98.72813 35.915627 98.18125 35.259377Q97.3375 34.24375 95.99375 34.24375Q94.79063 34.24375 93.9625 35.05625Q93.13438 35.853127 93.04063 37.2125ZM108.07188 38.2125Q108.07188 35.3375 109.66563 33.946877Q111.00938 32.790627 112.93125 32.790627Q115.07188 32.790627 116.41563 34.196877Q117.775 35.603127 117.775 38.071877Q117.775 40.071877 117.18125 41.228127Q116.5875 42.36875 115.43125 43.009377Q114.29063 43.634377 112.93125 43.634377Q110.74375 43.634377 109.4 42.24375Q108.07188 40.8375 108.07188 38.2125ZM109.86875 38.2125Q109.86875 40.2125 110.72813 41.196877Q111.60313 42.18125 112.93125 42.18125Q114.24375 42.18125 115.10313 41.196877Q115.97813 40.196877 115.97813 38.15Q115.97813 36.228127 115.10313 35.24375Q114.22813 34.24375 112.93125 34.24375Q111.60313 34.24375 110.72813 35.24375Q109.86875 36.228127 109.86875 38.2125ZM120.13438 43.4L120.13438 34.4L118.5875 34.4L118.5875 33.025L120.13438 33.025L120.13438 31.931252Q120.13438 30.884377 120.32188 30.368752Q120.57188 29.681252 121.2125 29.259377Q121.85313 28.837502 123.00938 28.837502Q123.75938 28.837502 124.65 29.009377L124.38438 30.540627Q123.8375 30.446877 123.35313 30.446877Q122.55625 30.446877 122.2125 30.790627Q121.88438 31.134377 121.88438 32.071877L121.88438 33.025L123.91563 33.025L123.91563 34.4L121.88438 34.4L121.88438 43.4L120.13438 43.4ZM130.97812 39.3375L132.68124 39.103127Q132.75937 40.74375 133.30624 41.353127Q133.85312 41.946877 134.82187 41.946877Q135.525 41.946877 136.04062 41.634377Q136.55624 41.30625 136.74374 40.74375Q136.94687 40.18125 136.94687 38.946877L136.94687 29.087502L138.85312 29.087502L138.85312 38.8375Q138.85312 40.634377 138.41562 41.61875Q137.97812 42.603127 137.025 43.134377Q136.0875 43.65 134.82187 43.65Q132.94687 43.65 131.93124 42.571877Q130.93124 41.478127 130.97812 39.3375ZM141.36874 36.43125Q141.36874 32.86875 143.275 30.853127Q145.19687 28.821877 148.22812 28.821877Q150.2125 28.821877 151.79062 29.775002Q153.38437 30.728127 154.2125 32.43125Q155.05624 34.11875 155.05624 36.259377Q155.05624 38.43125 154.18124 40.15Q153.30624 41.86875 151.68124 42.759377Q150.07187 43.65 148.2125 43.65Q146.19687 43.65 144.60312 42.68125Q143.00937 41.696877 142.18124 40.009377Q141.36874 38.30625 141.36874 36.43125ZM143.32187 36.4625Q143.32187 39.040627 144.7125 40.540627Q146.10312 42.025 148.19687 42.025Q150.3375 42.025 151.7125 40.525Q153.10312 39.009377 153.10312 36.24375Q153.10312 34.509377 152.50937 33.2125Q151.93124 31.900002 150.79062 31.181252Q149.65 30.462502 148.22812 30.462502Q146.22812 30.462502 144.775 31.853127Q143.32187 33.228127 143.32187 36.4625ZM157.86874 43.4L157.86874 29.087502L163.24374 29.087502Q164.88437 29.087502 165.86874 29.525002Q166.85312 29.946877 167.41562 30.853127Q167.97812 31.759377 167.97812 32.74375Q167.97812 33.665627 167.47812 34.478127Q166.99374 35.290627 165.97812 35.775Q167.275 36.165627 167.97812 37.0875Q168.68124 37.99375 168.68124 39.24375Q168.68124 40.259377 168.24374 41.11875Q167.82187 41.978127 167.19687 42.446877Q166.57187 42.915627 165.63437 43.165627Q164.69687 43.4 163.32187 43.4L157.86874 43.4ZM159.75937 35.103127L162.85312 35.103127Q164.11874 35.103127 164.66562 34.93125Q165.38437 34.7125 165.74374 34.228127Q166.11874 33.728127 166.11874 32.9625Q166.11874 32.259377 165.775 31.712502Q165.43124 31.165627 164.79062 30.978127Q164.16562 30.775002 162.61874 30.775002L159.75937 30.775002L159.75937 35.103127ZM159.75937 41.7125L163.32187 41.7125Q164.24374 41.7125 164.61874 41.634377Q165.275 41.525 165.7125 41.259377Q166.15 40.978127 166.43124 40.4625Q166.7125 39.93125 166.7125 39.24375Q166.7125 38.446877 166.30624 37.853127Q165.9 37.259377 165.16562 37.025Q164.43124 36.790627 163.07187 36.790627L159.75937 36.790627L159.75937 41.7125ZM183.3375 47.36875L183.3375 42.290627Q182.91562 42.86875 182.18124 43.259377Q181.44687 43.634377 180.61874 43.634377Q178.775 43.634377 177.43124 42.165627Q176.10312 40.68125 176.10312 38.11875Q176.10312 36.55625 176.63437 35.321877Q177.18124 34.071877 178.2125 33.43125Q179.24374 32.790627 180.47812 32.790627Q182.4 32.790627 183.50937 34.415627L183.50937 33.025L185.0875 33.025L185.0875 47.36875L183.3375 47.36875ZM177.91562 38.18125Q177.91562 40.18125 178.74374 41.18125Q179.5875 42.18125 180.75937 42.18125Q181.88437 42.18125 182.69687 41.24375Q183.50937 40.290627 183.50937 38.3375Q183.50937 36.275 182.65 35.228127Q181.79062 34.18125 180.65 34.18125Q179.50937 34.18125 178.7125 35.15Q177.91562 36.11875 177.91562 38.18125ZM194.50937 43.4L194.50937 41.86875Q193.30624 43.634377 191.22812 43.634377Q190.30624 43.634377 189.50937 43.290627Q188.7125 42.93125 188.32187 42.4Q187.94687 41.86875 187.79062 41.0875Q187.68124 40.571877 187.68124 39.446877L187.68124 33.025L189.43124 33.025L189.43124 38.775Q189.43124 40.15 189.54062 40.634377Q189.7125 41.321877 190.24374 41.728127Q190.79062 42.11875 191.57187 42.11875Q192.36874 42.11875 193.05624 41.7125Q193.75937 41.30625 194.04062 40.61875Q194.3375 39.915627 194.3375 38.5875L194.3375 33.025L196.0875 33.025L196.0875 43.4L194.50937 43.4ZM204.82187 40.05625L206.63437 40.290627Q206.2125 41.86875 205.04062 42.759377Q203.88437 43.634377 202.07187 43.634377Q199.80624 43.634377 198.4625 42.24375Q197.13437 40.8375 197.13437 38.30625Q197.13437 35.68125 198.47812 34.24375Q199.82187 32.790627 201.97812 32.790627Q204.05624 32.790627 205.36874 34.2125Q206.69687 35.61875 206.69687 38.196877Q206.69687 38.353127 206.68124 38.665627L198.94687 38.665627Q199.04062 40.36875 199.91562 41.275Q200.79062 42.18125 202.0875 42.18125Q203.05624 42.18125 203.72812 41.68125Q204.41562 41.165627 204.82187 40.05625ZM199.04062 37.2125L204.8375 37.2125Q204.72812 35.915627 204.18124 35.259377Q203.3375 34.24375 201.99374 34.24375Q200.79062 34.24375 199.9625 35.05625Q199.13437 35.853127 199.04062 37.2125ZM208.69687 43.4L208.69687 33.025L210.275 33.025L210.275 34.603127Q210.88437 33.49375 211.4 33.15Q211.91562 32.790627 212.525 32.790627Q213.41562 32.790627 214.3375 33.353127L213.72812 34.99375Q213.0875 34.603127 212.44687 34.603127Q211.86874 34.603127 211.4 34.9625Q210.94687 35.30625 210.74374 35.915627Q210.4625 36.853127 210.4625 37.9625L210.4625 43.4L208.69687 43.4ZM215.72812 31.103127L215.72812 29.087502L217.49374 29.087502L217.49374 31.103127L215.72812 31.103127ZM215.72812 43.4L215.72812 33.025L217.49374 33.025L217.49374 43.4L215.72812 43.4ZM226.82187 40.05625L228.63437 40.290627Q228.2125 41.86875 227.04062 42.759377Q225.88437 43.634377 224.07187 43.634377Q221.80624 43.634377 220.4625 42.24375Q219.13437 40.8375 219.13437 38.30625Q219.13437 35.68125 220.47812 34.24375Q221.82187 32.790627 223.97812 32.790627Q226.05624 32.790627 227.36874 34.2125Q228.69687 35.61875 228.69687 38.196877Q228.69687 38.353127 228.68124 38.665627L220.94687 38.665627Q221.04062 40.36875 221.91562 41.275Q222.79062 42.18125 224.0875 42.18125Q225.05624 42.18125 225.72812 41.68125Q226.41562 41.165627 226.82187 40.05625ZM221.04062 37.2125L226.8375 37.2125Q226.72812 35.915627 226.18124 35.259377Q225.3375 34.24375 223.99374 34.24375Q222.79062 34.24375 221.9625 35.05625Q221.13437 35.853127 221.04062 37.2125ZM230.00937 40.30625L231.75937 40.025Q231.9 41.071877 232.57187 41.634377Q233.24374 42.18125 234.44687 42.18125Q235.65 42.18125 236.22812 41.696877Q236.82187 41.196877 236.82187 40.540627Q236.82187 39.946877 236.30624 39.603127Q235.94687 39.36875 234.50937 39.009377Q232.57187 38.509377 231.82187 38.165627Q231.0875 37.80625 230.69687 37.18125Q230.30624 36.540627 230.30624 35.775Q230.30624 35.0875 230.61874 34.49375Q230.94687 33.9 231.49374 33.509377Q231.9 33.2125 232.60312 33.009377Q233.32187 32.790627 234.13437 32.790627Q235.35312 32.790627 236.275 33.15Q237.19687 33.49375 237.63437 34.103127Q238.07187 34.696877 238.24374 35.696877L236.525 35.93125Q236.4 35.134377 235.8375 34.696877Q235.275 34.24375 234.25937 34.24375Q233.04062 34.24375 232.525 34.65Q232.00937 35.040627 232.00937 35.571877Q232.00937 35.915627 232.22812 36.196877Q232.43124 36.478127 232.9 36.665627Q233.16562 36.759377 234.44687 37.103127Q236.32187 37.603127 237.05624 37.93125Q237.79062 38.24375 238.2125 38.853127Q238.63437 39.446877 238.63437 40.353127Q238.63437 41.228127 238.11874 42.009377Q237.60312 42.790627 236.63437 43.2125Q235.66562 43.634377 234.44687 43.634377Q232.43124 43.634377 231.36874 42.790627Q230.30624 41.946877 230.00937 40.30625ZM250.07187 47.603127Q248.61874 45.775 247.61874 43.321877Q246.61874 40.853127 246.61874 38.2125Q246.61874 35.884377 247.36874 33.759377Q248.24374 31.290627 250.07187 28.837502L251.3375 28.837502Q250.15 30.868752 249.775 31.743752Q249.18124 33.0875 248.8375 34.55625Q248.41562 36.384377 248.41562 38.228127Q248.41562 42.915627 251.3375 47.603127L250.07187 47.603127ZM253.00937 40.30625L254.75937 40.025Q254.9 41.071877 255.57187 41.634377Q256.24374 42.18125 257.44687 42.18125Q258.65 42.18125 259.22812 41.696877Q259.82187 41.196877 259.82187 40.540627Q259.82187 39.946877 259.30624 39.603127Q258.94687 39.36875 257.50937 39.009377Q255.57187 38.509377 254.82187 38.165627Q254.0875 37.80625 253.69687 37.18125Q253.30624 36.540627 253.30624 35.775Q253.30624 35.0875 253.61874 34.49375Q253.94687 33.9 254.49374 33.509377Q254.9 33.2125 255.60312 33.009377Q256.32187 32.790627 257.13437 32.790627Q258.35312 32.790627 259.275 33.15Q260.19687 33.49375 260.63437 34.103127Q261.07187 34.696877 261.24374 35.696877L259.525 35.93125Q259.4 35.134377 258.8375 34.696877Q258.275 34.24375 257.25937 34.24375Q256.04062 34.24375 255.525 34.65Q255.00937 35.040627 255.00937 35.571877Q255.00937 35.915627 255.22812 36.196877Q255.43124 36.478127 255.9 36.665627Q256.16562 36.759377 257.44687 37.103127Q259.32187 37.603127 260.05624 37.93125Q260.79062 38.24375 261.2125 38.853127Q261.63437 39.446877 261.63437 40.353127Q261.63437 41.228127 261.11874 42.009377Q260.60312 42.790627 259.63437 43.2125Q258.66562 43.634377 257.44687 43.634377Q255.43124 43.634377 254.36874 42.790627Q253.30624 41.946877 253.00937 40.30625ZM264.86874 47.603127L263.61874 47.603127Q266.525 42.915627 266.525 38.228127Q266.525 36.384377 266.11874 34.5875Q265.775 33.11875 265.18124 31.775002Q264.80624 30.884377 263.61874 28.837502L264.86874 28.837502Q266.7125 31.290627 267.5875 33.759377Q268.3375 35.884377 268.3375 38.2125Q268.3375 40.853127 267.32187 43.321877Q266.32187 45.775 264.86874 47.603127ZM276.72812 31.103127L276.72812 29.087502L278.49374 29.087502L278.49374 31.103127L276.72812 31.103127ZM276.72812 43.4L276.72812 33.025L278.49374 33.025L278.49374 43.4L276.72812 43.4ZM280.7125 43.4L280.7125 33.025L282.30624 33.025L282.30624 34.509377Q283.44687 32.790627 285.60312 32.790627Q286.54062 32.790627 287.32187 33.134377Q288.11874 33.4625 288.50937 34.009377Q288.9 34.55625 289.05624 35.30625Q289.15 35.80625 289.15 37.025L289.15 43.4L287.38437 43.4L287.38437 37.0875Q287.38437 36.009377 287.18124 35.478127Q286.97812 34.946877 286.44687 34.634377Q285.93124 34.321877 285.22812 34.321877Q284.10312 34.321877 283.29062 35.040627Q282.47812 35.74375 282.47812 37.728127L282.47812 43.4L280.7125 43.4ZM296.30624 38.80625L298.0875 38.65Q298.2125 39.7125 298.66562 40.4Q299.13437 41.0875 300.10312 41.525Q301.0875 41.946877 302.32187 41.946877Q303.4 41.946877 304.22812 41.634377Q305.05624 41.30625 305.4625 40.74375Q305.86874 40.18125 305.86874 39.509377Q305.86874 38.8375 305.47812 38.3375Q305.0875 37.8375 304.19687 37.49375Q303.61874 37.259377 301.63437 36.790627Q299.66562 36.321877 298.88437 35.9Q297.85312 35.36875 297.35312 34.571877Q296.85312 33.775 296.85312 32.790627Q296.85312 31.696877 297.4625 30.759377Q298.07187 29.821877 299.25937 29.337502Q300.44687 28.837502 301.88437 28.837502Q303.47812 28.837502 304.69687 29.353127Q305.91562 29.868752 306.55624 30.868752Q307.2125 31.853127 307.25937 33.11875L305.44687 33.259377Q305.30624 31.900002 304.4625 31.212502Q303.61874 30.509377 301.9625 30.509377Q300.24374 30.509377 299.44687 31.150002Q298.66562 31.775002 298.66562 32.65Q298.66562 33.43125 299.22812 33.93125Q299.775 34.43125 302.0875 34.946877Q304.4 35.4625 305.25937 35.853127Q306.50937 36.43125 307.10312 37.321877Q307.69687 38.196877 307.69687 39.353127Q307.69687 40.49375 307.04062 41.509377Q306.38437 42.525 305.15 43.0875Q303.93124 43.65 302.4 43.65Q300.4625 43.65 299.15 43.0875Q297.8375 42.509377 297.0875 41.36875Q296.3375 40.228127 296.30624 38.80625ZM320.79062 41.86875Q322.11874 42.775 323.22812 43.196877L322.66562 44.509377Q321.11874 43.9625 319.5875 42.759377Q317.99374 43.65 316.07187 43.65Q314.13437 43.65 312.54062 42.7125Q310.9625 41.775 310.10312 40.071877Q309.25937 38.36875 309.25937 36.24375Q309.25937 34.11875 310.11874 32.384377Q310.97812 30.650002 312.55624 29.743752Q314.15 28.821877 316.11874 28.821877Q318.10312 28.821877 319.68124 29.775002Q321.275 30.712502 322.10312 32.415627Q322.94687 34.103127 322.94687 36.228127Q322.94687 37.99375 322.41562 39.415627Q321.88437 40.821877 320.79062 41.86875ZM316.61874 39.446877Q318.25937 39.9 319.32187 40.80625Q320.99374 39.290627 320.99374 36.228127Q320.99374 34.49375 320.4 33.196877Q319.82187 31.900002 318.68124 31.181252Q317.54062 30.462502 316.11874 30.462502Q314.00937 30.462502 312.60312 31.915627Q311.2125 33.353127 311.2125 36.24375Q311.2125 39.040627 312.5875 40.540627Q313.97812 42.025 316.11874 42.025Q317.13437 42.025 318.04062 41.634377Q317.15 41.071877 316.16562 40.821877L316.61874 39.446877ZM325.86874 43.4L325.86874 29.087502L327.75937 29.087502L327.75937 41.7125L334.80624 41.7125L334.80624 43.4L325.86874 43.4ZM336.72812 31.103127L336.72812 29.087502L338.49374 29.087502L338.49374 31.103127L336.72812 31.103127ZM336.72812 43.4L336.72812 33.025L338.49374 33.025L338.49374 43.4L336.72812 43.4ZM344.55624 41.821877L344.80624 43.384377Q344.07187 43.540627 343.47812 43.540627Q342.525 43.540627 341.99374 43.24375Q341.47812 42.93125 341.25937 42.446877Q341.04062 41.946877 341.04062 40.36875L341.04062 34.4L339.75937 34.4L339.75937 33.025L341.04062 33.025L341.04062 30.462502L342.79062 29.400002L342.79062 33.025L344.55624 33.025L344.55624 34.4L342.79062 34.4L342.79062 40.4625Q342.79062 41.2125 342.88437 41.43125Q342.97812 41.634377 343.18124 41.775Q343.4 41.9 343.79062 41.9Q344.07187 41.9 344.55624 41.821877ZM353.82187 40.05625L355.63437 40.290627Q355.2125 41.86875 354.04062 42.759377Q352.88437 43.634377 351.07187 43.634377Q348.80624 43.634377 347.4625 42.24375Q346.13437 40.8375 346.13437 38.30625Q346.13437 35.68125 347.47812 34.24375Q348.82187 32.790627 350.97812 32.790627Q353.05624 32.790627 354.36874 34.2125Q355.69687 35.61875 355.69687 38.196877Q355.69687 38.353127 355.68124 38.665627L347.94687 38.665627Q348.04062 40.36875 348.91562 41.275Q349.79062 42.18125 351.0875 42.18125Q352.05624 42.18125 352.72812 41.68125Q353.41562 41.165627 353.82187 40.05625ZM348.04062 37.2125L353.8375 37.2125Q353.72812 35.915627 353.18124 35.259377Q352.3375 34.24375 350.99374 34.24375Q349.79062 34.24375 348.9625 35.05625Q348.13437 35.853127 348.04062 37.2125Z" fill-rule="nonzero"/></svg>